<svg xmlns="http://www.w3.org/2000/svg" xmlns:xlink="http://www.w3.org/1999/xlink" width="1024" zoomAndPan="magnify" viewBox="0 0 768 576" height="768" preserveAspectRatio="xMidYMid meet" version="1.0"><defs><g/><clipPath id="5eb6f84ae5"><path d="M 261.660156 127.265625 L 480.574219 127.265625 L 480.574219 203.097656 L 261.660156 203.097656 Z M 261.660156 127.265625 " clip-rule="nonzero"/></clipPath><clipPath id="4b9f69cf61"><path d="M 480.574219 165.183594 L 457.332031 203.097656 L 284.902344 203.097656 L 261.660156 165.183594 L 284.902344 127.265625 L 457.332031 127.265625 L 480.574219 165.183594 " clip-rule="nonzero"/></clipPath><clipPath id="23df09f904"><path d="M 284.65625 133.125 L 349.90625 133.125 L 349.90625 198.375 L 284.65625 198.375 Z M 284.65625 133.125 " clip-rule="nonzero"/></clipPath><clipPath id="32b3fd9ebe"><path d="M 290 138 L 344 138 L 344 198.375 L 290 198.375 Z M 290 138 " clip-rule="nonzero"/></clipPath><clipPath id="7e8ce5564a"><path d="M 16.0625 316.195312 L 202.238281 316.195312 L 202.238281 381.589844 L 16.0625 381.589844 Z M 16.0625 316.195312 " clip-rule="nonzero"/></clipPath><clipPath id="ddee96d901"><path d="M 202.238281 348.894531 L 182.195312 381.589844 L 36.105469 381.589844 L 16.0625 348.894531 L 36.105469 316.195312 L 182.195312 316.195312 L 202.238281 348.894531 " clip-rule="nonzero"/></clipPath><clipPath id="7e6c523ba8"><path d="M 28.425781 320.960938 L 82.863281 320.960938 L 82.863281 375.394531 L 28.425781 375.394531 Z M 28.425781 320.960938 " clip-rule="nonzero"/></clipPath><clipPath id="700fd2a147"><path d="M 33 325 L 78 325 L 78 375.394531 L 33 375.394531 Z M 33 325 " clip-rule="nonzero"/></clipPath><clipPath id="e3c3007611"><path d="M 201.84375 383.339844 L 388.019531 383.339844 L 388.019531 448.734375 L 201.84375 448.734375 Z M 201.84375 383.339844 " clip-rule="nonzero"/></clipPath><clipPath id="295b28443d"><path d="M 388.019531 416.035156 L 367.976562 448.734375 L 221.886719 448.734375 L 201.84375 416.035156 L 221.886719 383.339844 L 367.976562 383.339844 L 388.019531 416.035156 " clip-rule="nonzero"/></clipPath><clipPath id="9e0cca8ef6"><path d="M 214.207031 388.101562 L 268.644531 388.101562 L 268.644531 442.539062 L 214.207031 442.539062 Z M 214.207031 388.101562 " clip-rule="nonzero"/></clipPath><clipPath id="898e1db917"><path d="M 219 392 L 264 392 L 264 442.539062 L 219 442.539062 Z M 219 392 " clip-rule="nonzero"/></clipPath><clipPath id="4c7a91d2f0"><path d="M 380.851562 316.195312 L 567.03125 316.195312 L 567.03125 381.589844 L 380.851562 381.589844 Z M 380.851562 316.195312 " clip-rule="nonzero"/></clipPath><clipPath id="f7960c0be9"><path d="M 567.03125 348.894531 L 546.984375 381.589844 L 400.898438 381.589844 L 380.851562 348.894531 L 400.898438 316.195312 L 546.984375 316.195312 L 567.03125 348.894531 " clip-rule="nonzero"/></clipPath><clipPath id="0afa0cdee7"><path d="M 393.21875 320.960938 L 447.652344 320.960938 L 447.652344 375.394531 L 393.21875 375.394531 Z M 393.21875 320.960938 " clip-rule="nonzero"/></clipPath><clipPath id="aa0ceb9016"><path d="M 398 325 L 443 325 L 443 375.394531 L 398 375.394531 Z M 398 325 " clip-rule="nonzero"/></clipPath><clipPath id="f1479376a4"><path d="M 565.761719 383.339844 L 751.9375 383.339844 L 751.9375 448.734375 L 565.761719 448.734375 Z M 565.761719 383.339844 " clip-rule="nonzero"/></clipPath><clipPath id="1d910facab"><path d="M 751.9375 416.035156 L 731.894531 448.734375 L 585.804688 448.734375 L 565.761719 416.035156 L 585.804688 383.339844 L 731.894531 383.339844 L 751.9375 416.035156 " clip-rule="nonzero"/></clipPath><clipPath id="e9545b02e3"><path d="M 578.125 388.101562 L 632.5625 388.101562 L 632.5625 442.539062 L 578.125 442.539062 Z M 578.125 388.101562 " clip-rule="nonzero"/></clipPath><clipPath id="f63f9d1339"><path d="M 583 392 L 628 392 L 628 442.539062 L 583 442.539062 Z M 583 392 " clip-rule="nonzero"/></clipPath></defs><path stroke-linecap="butt" transform="matrix(-0.74957, 0.00077634, -0.000776785, -0.75, 660.106484, 279.670643)" fill="none" stroke-linejoin="miter" d="M 0.000838652 0.498358 L 736.438795 0.500243 " stroke="#000000" stroke-width="1" stroke-opacity="1" stroke-miterlimit="4"/><path stroke-linecap="butt" transform="matrix(0.00633703, 0.750228, -0.749973, 0.00633488, 659.616069, 279.867313)" fill="none" stroke-linejoin="miter" d="M 0.000829704 0.498533 L 137.958891 0.497525 " stroke="#000000" stroke-width="1" stroke-opacity="1" stroke-miterlimit="4"/><path stroke-linecap="butt" transform="matrix(0.000000000000000046, 0.754159, -0.75, 0.000000000000000046, 476.887996, 278.726728)" fill="none" stroke-linejoin="miter" d="M -0.000218901 0.501703 L 50.728893 0.501703 " stroke="#000000" stroke-width="1" stroke-opacity="1" stroke-miterlimit="4"/><path stroke-linecap="butt" transform="matrix(0.000000000000000876, 0.747852, -0.75, 0.000000000000000879, 295.306336, 279.868895)" fill="none" stroke-linejoin="miter" d="M -0.00228286 0.502199 L 136.393569 0.502199 " stroke="#000000" stroke-width="1" stroke-opacity="1" stroke-miterlimit="4"/><path stroke-linecap="butt" transform="matrix(0.000000000000001208, 0.747852, -0.75, 0.000000000000001212, 371.097289, 177.967937)" fill="none" stroke-linejoin="miter" d="M 0.0010866 0.499511 L 136.391715 0.499511 " stroke="#000000" stroke-width="1" stroke-opacity="1" stroke-miterlimit="4"/><path stroke-linecap="butt" transform="matrix(0.0113306, 0.754074, -0.749915, 0.0112681, 108.554139, 279.873289)" fill="none" stroke-linejoin="miter" d="M -0.0000123587 0.499324 L 50.734815 0.500172 " stroke="#000000" stroke-width="1" stroke-opacity="1" stroke-miterlimit="4"/><g clip-path="url(#5eb6f84ae5)"><g clip-path="url(#4b9f69cf61)"><path fill="#2f5597" d="M 261.660156 127.265625 L 480.574219 127.265625 L 480.574219 203.097656 L 261.660156 203.097656 Z M 261.660156 127.265625 " fill-opacity="1" fill-rule="nonzero"/></g></g><g fill="#ffffff" fill-opacity="1"><g transform="translate(354.728898, 161.603367)"><g><path d="M 5.5625 0.191406 C 8.121094 0.191406 9.683594 -1.222656 9.96875 -3.375 L 7.835938 -3.375 C 7.628906 -2.148438 6.734375 -1.5625 5.507812 -1.5625 C 3.605469 -1.5625 2.570312 -3.03125 2.570312 -5.195312 C 2.570312 -7.34375 3.605469 -8.8125 5.507812 -8.8125 C 6.734375 -8.8125 7.644531 -8.230469 7.835938 -7.128906 L 9.96875 -7.128906 C 9.683594 -9.167969 8.121094 -10.566406 5.5625 -10.566406 C 2.121094 -10.566406 0.53125 -8.066406 0.53125 -5.195312 C 0.53125 -2.324219 2.121094 0.191406 5.5625 0.191406 Z M 5.5625 0.191406 "/></g></g></g><g fill="#ffffff" fill-opacity="1"><g transform="translate(365.157562, 161.603367)"><g><path d="M 5.5625 0.191406 C 9.003906 0.191406 10.609375 -2.324219 10.609375 -5.195312 C 10.609375 -8.066406 9.003906 -10.566406 5.5625 -10.566406 C 2.136719 -10.566406 0.53125 -8.066406 0.53125 -5.195312 C 0.53125 -2.324219 2.136719 0.191406 5.5625 0.191406 Z M 5.5625 -1.5625 C 3.671875 -1.5625 2.570312 -3.03125 2.570312 -5.195312 C 2.570312 -7.34375 3.671875 -8.800781 5.5625 -8.800781 C 7.480469 -8.800781 8.570312 -7.34375 8.570312 -5.195312 C 8.570312 -3.03125 7.480469 -1.5625 5.5625 -1.5625 Z M 5.5625 -1.5625 "/></g></g></g><g fill="#ffffff" fill-opacity="1"><g transform="translate(376.30684, 161.603367)"><g><path d="M 5.5625 0.191406 C 9.003906 0.191406 10.609375 -2.324219 10.609375 -5.195312 C 10.609375 -8.066406 9.003906 -10.566406 5.5625 -10.566406 C 2.136719 -10.566406 0.53125 -8.066406 0.53125 -5.195312 C 0.53125 -2.324219 2.136719 0.191406 5.5625 0.191406 Z M 5.5625 -1.5625 C 3.671875 -1.5625 2.570312 -3.03125 2.570312 -5.195312 C 2.570312 -7.34375 3.671875 -8.800781 5.5625 -8.800781 C 7.480469 -8.800781 8.570312 -7.34375 8.570312 -5.195312 C 8.570312 -3.03125 7.480469 -1.5625 5.5625 -1.5625 Z M 5.5625 -1.5625 "/></g></g></g><g fill="#ffffff" fill-opacity="1"><g transform="translate(387.456119, 161.603367)"><g><path d="M 7.058594 -4.503906 C 8.066406 -4.976562 8.691406 -5.957031 8.691406 -7.316406 C 8.691406 -9.464844 7.34375 -10.378906 5.398438 -10.378906 L 0.925781 -10.378906 L 0.925781 0 L 2.882812 0 L 2.882812 -4.148438 L 5.195312 -4.148438 L 6.839844 0 L 8.921875 0 Z M 5.128906 -8.625 C 6.160156 -8.625 6.746094 -8.132812 6.746094 -7.25 C 6.746094 -6.339844 6.175781 -5.863281 5.128906 -5.863281 L 2.882812 -5.863281 L 2.882812 -8.625 Z M 5.128906 -8.625 "/></g></g></g><g fill="#ffffff" fill-opacity="1"><g transform="translate(396.824236, 161.603367)"><g><path d="M 3.945312 0 C 7.441406 0 9.371094 -1.863281 9.371094 -5.183594 C 9.371094 -8.515625 7.453125 -10.378906 3.945312 -10.378906 L 0.925781 -10.378906 L 0.925781 0 Z M 2.882812 -8.625 L 3.929688 -8.625 C 6.023438 -8.625 7.414062 -7.589844 7.414062 -5.183594 C 7.414062 -2.613281 5.984375 -1.753906 3.917969 -1.753906 L 2.882812 -1.753906 Z M 2.882812 -8.625 "/></g></g></g><g fill="#ffffff" fill-opacity="1"><g transform="translate(406.722621, 161.603367)"><g><path d="M 2.882812 0 L 2.882812 -10.378906 L 0.925781 -10.378906 L 0.925781 0 Z M 2.882812 0 "/></g></g></g><g fill="#ffffff" fill-opacity="1"><g transform="translate(410.52969, 161.603367)"><g><path d="M 2.882812 0 L 2.882812 -7.441406 L 7.128906 0 L 9.34375 0 L 9.34375 -10.378906 L 7.386719 -10.378906 L 7.386719 -2.953125 L 3.128906 -10.378906 L 0.925781 -10.378906 L 0.925781 0 Z M 2.882812 0 "/></g></g></g><g fill="#ffffff" fill-opacity="1"><g transform="translate(420.795189, 161.603367)"><g><path d="M 2.148438 0 L 2.84375 -2.136719 L 6.800781 -2.136719 L 7.507812 0 L 9.5625 0 L 5.902344 -10.378906 L 3.753906 -10.378906 L 0.09375 0 Z M 4.828125 -8.242188 L 6.257812 -3.847656 L 3.398438 -3.847656 Z M 4.828125 -8.242188 "/></g></g></g><g fill="#ffffff" fill-opacity="1"><g transform="translate(430.448839, 161.603367)"><g><path d="M 3.945312 0 C 7.441406 0 9.371094 -1.863281 9.371094 -5.183594 C 9.371094 -8.515625 7.453125 -10.378906 3.945312 -10.378906 L 0.925781 -10.378906 L 0.925781 0 Z M 2.882812 -8.625 L 3.929688 -8.625 C 6.023438 -8.625 7.414062 -7.589844 7.414062 -5.183594 C 7.414062 -2.613281 5.984375 -1.753906 3.917969 -1.753906 L 2.882812 -1.753906 Z M 2.882812 -8.625 "/></g></g></g><g fill="#ffffff" fill-opacity="1"><g transform="translate(440.347223, 161.603367)"><g><path d="M 5.5625 0.191406 C 9.003906 0.191406 10.609375 -2.324219 10.609375 -5.195312 C 10.609375 -8.066406 9.003906 -10.566406 5.5625 -10.566406 C 2.136719 -10.566406 0.53125 -8.066406 0.53125 -5.195312 C 0.53125 -2.324219 2.136719 0.191406 5.5625 0.191406 Z M 5.5625 -1.5625 C 3.671875 -1.5625 2.570312 -3.03125 2.570312 -5.195312 C 2.570312 -7.34375 3.671875 -8.800781 5.5625 -8.800781 C 7.480469 -8.800781 8.570312 -7.34375 8.570312 -5.195312 C 8.570312 -3.03125 7.480469 -1.5625 5.5625 -1.5625 Z M 5.5625 -1.5625 "/></g></g></g><g fill="#ffffff" fill-opacity="1"><g transform="translate(451.496502, 161.603367)"><g><path d="M 7.058594 -4.503906 C 8.066406 -4.976562 8.691406 -5.957031 8.691406 -7.316406 C 8.691406 -9.464844 7.34375 -10.378906 5.398438 -10.378906 L 0.925781 -10.378906 L 0.925781 0 L 2.882812 0 L 2.882812 -4.148438 L 5.195312 -4.148438 L 6.839844 0 L 8.921875 0 Z M 5.128906 -8.625 C 6.160156 -8.625 6.746094 -8.132812 6.746094 -7.25 C 6.746094 -6.339844 6.175781 -5.863281 5.128906 -5.863281 L 2.882812 -5.863281 L 2.882812 -8.625 Z M 5.128906 -8.625 "/></g></g></g><g fill="#ffffff" fill-opacity="1"><g transform="translate(393.731654, 180.537701)"><g><path d="M 2.882812 0 L 2.882812 -4.324219 L 7.332031 -4.324219 L 7.332031 0 L 9.289062 0 L 9.289062 -10.378906 L 7.332031 -10.378906 L 7.332031 -6.078125 L 2.882812 -6.078125 L 2.882812 -10.378906 L 0.925781 -10.378906 L 0.925781 0 Z M 2.882812 0 "/></g></g></g><g fill="#ffffff" fill-opacity="1"><g transform="translate(403.956368, 180.537701)"><g><path d="M 5.046875 0.191406 C 7.496094 0.191406 8.921875 -1.046875 8.921875 -3.003906 C 8.921875 -5.359375 6.867188 -5.820312 5.140625 -6.203125 C 3.875 -6.488281 2.761719 -6.734375 2.761719 -7.683594 C 2.761719 -8.472656 3.46875 -8.894531 4.449219 -8.894531 C 5.507812 -8.894531 6.390625 -8.390625 6.652344 -7.289062 L 8.648438 -7.289062 C 8.324219 -9.535156 6.488281 -10.566406 4.488281 -10.566406 C 2.394531 -10.566406 0.816406 -9.519531 0.816406 -7.519531 C 0.816406 -5.332031 2.746094 -4.910156 4.449219 -4.527344 C 5.765625 -4.242188 6.949219 -3.984375 6.949219 -2.910156 C 6.949219 -1.917969 6.132812 -1.484375 5.058594 -1.484375 C 3.972656 -1.484375 2.84375 -1.890625 2.503906 -3.375 L 0.476562 -3.375 C 0.734375 -0.695312 3.046875 0.191406 5.046875 0.191406 Z M 5.046875 0.191406 "/></g></g></g><g fill="#ffffff" fill-opacity="1"><g transform="translate(413.419659, 180.537701)"><g><path d="M 7.847656 0 L 7.847656 -1.753906 L 2.882812 -1.753906 L 2.882812 -4.324219 L 7.332031 -4.324219 L 7.332031 -6.066406 L 2.882812 -6.066406 L 2.882812 -8.625 L 7.847656 -8.625 L 7.847656 -10.378906 L 0.925781 -10.378906 L 0.925781 0 Z M 7.847656 0 "/></g></g></g><g clip-path="url(#23df09f904)"><path fill="#92acdf" d="M 349.90625 165.75 C 349.90625 183.765625 335.300781 198.375 317.28125 198.375 C 299.261719 198.375 284.65625 183.765625 284.65625 165.75 C 284.65625 147.730469 299.261719 133.125 317.28125 133.125 C 335.300781 133.125 349.90625 147.730469 349.90625 165.75 " fill-opacity="1" fill-rule="nonzero"/></g><g clip-path="url(#32b3fd9ebe)"><path fill="#cedaf0" d="M 309.414062 170.898438 C 303.375 176.40625 296.945312 176.082031 293.242188 179.785156 C 292.3125 180.714844 291.542969 182.613281 290.902344 184.949219 C 296.835938 193.085938 306.441406 198.375 317.28125 198.375 C 328.121094 198.375 337.726562 193.085938 343.65625 184.949219 C 343.019531 182.613281 342.25 180.714844 341.320312 179.785156 C 337.617188 176.082031 331.1875 176.40625 325.148438 170.898438 C 325.183594 170.855469 323.753906 169.503906 323.699219 169.558594 L 323.699219 166.082031 C 325.320312 163.824219 326.398438 160.757812 327.03125 157.703125 C 327.097656 157.84375 327.183594 157.9375 327.28125 157.957031 C 327.660156 158.019531 328.136719 157.152344 328.335938 156.011719 C 328.53125 154.910156 328.394531 153.976562 328.042969 153.855469 C 328.582031 151.175781 328.300781 146.902344 327.199219 143.613281 C 326.082031 140.277344 321.261719 138.890625 317.515625 138.789062 L 317.515625 138.78125 C 317.503906 138.78125 317.496094 138.78125 317.484375 138.78125 C 317.421875 138.78125 317.363281 138.78125 317.304688 138.78125 C 317.296875 138.78125 317.289062 138.78125 317.28125 138.78125 C 317.273438 138.78125 317.265625 138.78125 317.253906 138.78125 C 317.195312 138.78125 317.136719 138.78125 317.078125 138.78125 C 317.066406 138.78125 317.054688 138.78125 317.046875 138.78125 L 317.046875 138.789062 C 313.300781 138.890625 308.476562 140.277344 307.363281 143.613281 C 306.261719 146.902344 305.980469 151.175781 306.519531 153.855469 C 306.164062 153.976562 306.03125 154.910156 306.226562 156.011719 C 306.429688 157.152344 306.898438 158.019531 307.277344 157.957031 C 307.382812 157.9375 307.460938 157.84375 307.527344 157.703125 C 308.164062 160.757812 309.242188 163.824219 310.859375 166.082031 L 310.859375 169.558594 C 310.808594 169.503906 309.375 170.855469 309.414062 170.898438 " fill-opacity="1" fill-rule="nonzero"/></g><g clip-path="url(#7e8ce5564a)"><g clip-path="url(#ddee96d901)"><path fill="#2f5597" d="M 16.0625 316.195312 L 202.238281 316.195312 L 202.238281 381.589844 L 16.0625 381.589844 Z M 16.0625 316.195312 " fill-opacity="1" fill-rule="nonzero"/></g></g><g clip-path="url(#7e6c523ba8)"><path fill="#92acdf" d="M 82.863281 348.179688 C 82.863281 363.210938 70.675781 375.394531 55.644531 375.394531 C 40.613281 375.394531 28.425781 363.210938 28.425781 348.179688 C 28.425781 333.144531 40.613281 320.960938 55.644531 320.960938 C 70.675781 320.960938 82.863281 333.144531 82.863281 348.179688 " fill-opacity="1" fill-rule="nonzero"/></g><g clip-path="url(#700fd2a147)"><path fill="#cedaf0" d="M 49.082031 352.476562 C 44.042969 357.070312 38.679688 356.800781 35.589844 359.890625 C 34.816406 360.664062 34.171875 362.246094 33.640625 364.195312 C 38.589844 370.984375 46.601562 375.394531 55.644531 375.394531 C 64.6875 375.394531 72.699219 370.984375 77.648438 364.195312 C 77.117188 362.246094 76.472656 360.664062 75.699219 359.890625 C 72.609375 356.800781 67.246094 357.070312 62.207031 352.476562 C 62.238281 352.4375 61.042969 351.3125 61 351.355469 L 61 348.457031 C 62.351562 346.570312 63.25 344.011719 63.78125 341.46875 C 63.832031 341.582031 63.902344 341.664062 63.988281 341.675781 C 64.304688 341.730469 64.699219 341.007812 64.867188 340.054688 C 65.027344 339.136719 64.914062 338.355469 64.621094 338.253906 C 65.070312 336.023438 64.839844 332.457031 63.917969 329.710938 C 62.988281 326.929688 58.964844 325.769531 55.839844 325.6875 L 55.839844 325.679688 C 55.828125 325.679688 55.824219 325.679688 55.8125 325.679688 C 55.761719 325.679688 55.714844 325.679688 55.664062 325.679688 C 55.65625 325.679688 55.652344 325.679688 55.644531 325.679688 C 55.636719 325.679688 55.628906 325.679688 55.621094 325.679688 C 55.574219 325.679688 55.523438 325.679688 55.476562 325.679688 C 55.464844 325.679688 55.457031 325.679688 55.449219 325.679688 L 55.449219 325.6875 C 52.324219 325.769531 48.300781 326.929688 47.371094 329.710938 C 46.449219 332.457031 46.21875 336.023438 46.667969 338.253906 C 46.371094 338.355469 46.257812 339.136719 46.421875 340.054688 C 46.589844 341.007812 46.980469 341.730469 47.300781 341.675781 C 47.386719 341.664062 47.453125 341.582031 47.507812 341.46875 C 48.039062 344.011719 48.9375 346.570312 50.289062 348.457031 L 50.289062 351.355469 C 50.242188 351.3125 49.046875 352.4375 49.082031 352.476562 " fill-opacity="1" fill-rule="nonzero"/></g><g fill="#ffffff" fill-opacity="1"><g transform="translate(112.426911, 345.1662)"><g><path d="M 3.351562 0 L 3.351562 -5.03125 L 8.527344 -5.03125 L 8.527344 0 L 10.804688 0 L 10.804688 -12.070312 L 8.527344 -12.070312 L 8.527344 -7.070312 L 3.351562 -7.070312 L 3.351562 -12.070312 L 1.074219 -12.070312 L 1.074219 0 Z M 3.351562 0 "/></g></g></g><g fill="#ffffff" fill-opacity="1"><g transform="translate(124.320278, 345.1662)"><g><path d="M 5.867188 0.222656 C 8.714844 0.222656 10.375 -1.21875 10.375 -3.496094 C 10.375 -6.230469 7.988281 -6.769531 5.980469 -7.214844 C 4.507812 -7.546875 3.210938 -7.828125 3.210938 -8.9375 C 3.210938 -9.855469 4.035156 -10.34375 5.171875 -10.34375 C 6.40625 -10.34375 7.433594 -9.757812 7.734375 -8.476562 L 10.058594 -8.476562 C 9.679688 -11.089844 7.546875 -12.289062 5.21875 -12.289062 C 2.785156 -12.289062 0.949219 -11.074219 0.949219 -8.746094 C 0.949219 -6.199219 3.195312 -5.710938 5.171875 -5.265625 C 6.707031 -4.933594 8.082031 -4.632812 8.082031 -3.386719 C 8.082031 -2.230469 7.132812 -1.722656 5.882812 -1.722656 C 4.617188 -1.722656 3.304688 -2.199219 2.910156 -3.921875 L 0.554688 -3.921875 C 0.855469 -0.808594 3.542969 0.222656 5.867188 0.222656 Z M 5.867188 0.222656 "/></g></g></g><g fill="#ffffff" fill-opacity="1"><g transform="translate(135.327976, 345.1662)"><g><path d="M 9.128906 0 L 9.128906 -2.039062 L 3.351562 -2.039062 L 3.351562 -5.03125 L 8.527344 -5.03125 L 8.527344 -7.054688 L 3.351562 -7.054688 L 3.351562 -10.027344 L 9.128906 -10.027344 L 9.128906 -12.070312 L 1.074219 -12.070312 L 1.074219 0 Z M 9.128906 0 "/></g></g></g><g fill="#ffffff" fill-opacity="1"><g transform="translate(109.184899, 363.311604)"><g><path d="M 8.460938 0 L 8.460938 -2.039062 L 3.351562 -2.039062 L 3.351562 -12.070312 L 1.074219 -12.070312 L 1.074219 0 Z M 8.460938 0 "/></g></g></g><g fill="#ffffff" fill-opacity="1"><g transform="translate(117.820244, 363.311604)"><g><path d="M 2.039062 -9.855469 C 2.753906 -9.855469 3.351562 -10.328125 3.351562 -11.074219 C 3.351562 -11.785156 2.753906 -12.289062 2.039062 -12.289062 C 1.3125 -12.289062 0.726562 -11.785156 0.726562 -11.074219 C 0.726562 -10.328125 1.3125 -9.855469 2.039062 -9.855469 Z M 3.101562 0 L 3.101562 -8.875 L 0.964844 -8.875 L 0.964844 0 Z M 3.101562 0 "/></g></g></g><g fill="#ffffff" fill-opacity="1"><g transform="translate(121.900687, 363.311604)"><g><path d="M 4.539062 0.175781 C 5.582031 0.175781 6.34375 -0.125 7.054688 -1.125 L 7.054688 0 L 9.191406 0 L 9.191406 -12.070312 L 7.054688 -12.070312 L 7.054688 -7.75 C 6.34375 -8.761719 5.582031 -9.0625 4.539062 -9.0625 C 2.214844 -9.0625 0.632812 -7.164062 0.632812 -4.445312 C 0.632812 -1.722656 2.214844 0.175781 4.539062 0.175781 Z M 5.03125 -1.660156 C 3.667969 -1.660156 2.785156 -2.832031 2.785156 -4.445312 C 2.785156 -6.058594 3.667969 -7.230469 5.03125 -7.230469 C 6.390625 -7.230469 7.324219 -6.089844 7.324219 -4.445312 C 7.324219 -2.800781 6.390625 -1.660156 5.03125 -1.660156 Z M 5.03125 -1.660156 "/></g></g></g><g fill="#ffffff" fill-opacity="1"><g transform="translate(132.070146, 363.311604)"><g><path d="M 5.125 0.175781 C 7.496094 0.175781 8.859375 -1.265625 9.378906 -2.988281 L 7.195312 -2.988281 C 6.914062 -2.261719 6.214844 -1.660156 5.203125 -1.660156 C 4.285156 -1.660156 3.558594 -2.136719 3.148438 -2.957031 C 2.988281 -3.226562 2.847656 -3.621094 2.816406 -4.003906 L 9.523438 -4.003906 L 9.523438 -4.460938 C 9.523438 -7.671875 7.355469 -9.0625 5.0625 -9.0625 C 2.023438 -9.0625 0.601562 -6.707031 0.601562 -4.382812 C 0.601562 -1.753906 2.40625 0.175781 5.125 0.175781 Z M 2.910156 -5.597656 C 2.941406 -5.835938 3.019531 -6.136719 3.257812 -6.421875 C 3.667969 -7.054688 4.335938 -7.371094 5.125 -7.371094 C 5.898438 -7.371094 6.597656 -7.054688 7.007812 -6.421875 C 7.230469 -6.152344 7.308594 -5.835938 7.339844 -5.597656 Z M 2.910156 -5.597656 "/></g></g></g><g fill="#ffffff" fill-opacity="1"><g transform="translate(142.192163, 363.311604)"><g><path d="M 3.101562 0 L 3.101562 -4.113281 C 3.101562 -5.285156 3.335938 -5.996094 3.8125 -6.46875 C 4.160156 -6.800781 4.667969 -7.007812 5.394531 -7.007812 L 5.882812 -7.007812 L 5.882812 -9.0625 L 5.632812 -9.0625 C 4.585938 -9.0625 3.78125 -8.746094 3.101562 -7.8125 L 3.101562 -8.875 L 0.964844 -8.875 L 0.964844 0 Z M 3.101562 0 "/></g></g></g><g clip-path="url(#e3c3007611)"><g clip-path="url(#295b28443d)"><path fill="#2f5597" d="M 201.84375 383.339844 L 388.019531 383.339844 L 388.019531 448.734375 L 201.84375 448.734375 Z M 201.84375 383.339844 " fill-opacity="1" fill-rule="nonzero"/></g></g><g clip-path="url(#9e0cca8ef6)"><path fill="#92acdf" d="M 268.644531 415.320312 C 268.644531 430.351562 256.457031 442.539062 241.425781 442.539062 C 226.394531 442.539062 214.207031 430.351562 214.207031 415.320312 C 214.207031 400.289062 226.394531 388.101562 241.425781 388.101562 C 256.457031 388.101562 268.644531 400.289062 268.644531 415.320312 " fill-opacity="1" fill-rule="nonzero"/></g><g clip-path="url(#898e1db917)"><path fill="#cedaf0" d="M 234.863281 419.617188 C 229.824219 424.210938 224.460938 423.941406 221.371094 427.03125 C 220.597656 427.808594 219.953125 429.390625 219.421875 431.339844 C 224.371094 438.128906 232.382812 442.539062 241.425781 442.539062 C 250.46875 442.539062 258.480469 438.128906 263.429688 431.339844 C 262.898438 429.390625 262.257812 427.808594 261.480469 427.03125 C 258.394531 423.941406 253.027344 424.210938 247.988281 419.617188 C 248.019531 419.582031 246.828125 418.453125 246.78125 418.5 L 246.78125 415.601562 C 248.132812 413.714844 249.03125 411.15625 249.5625 408.609375 C 249.613281 408.726562 249.6875 408.804688 249.769531 408.820312 C 250.085938 408.875 250.480469 408.148438 250.648438 407.199219 C 250.8125 406.277344 250.699219 405.5 250.402344 405.398438 C 250.851562 403.164062 250.621094 399.601562 249.699219 396.851562 C 248.769531 394.070312 244.746094 392.914062 241.621094 392.828125 L 241.621094 392.824219 C 241.613281 392.824219 241.605469 392.824219 241.59375 392.824219 C 241.542969 392.824219 241.496094 392.824219 241.445312 392.824219 C 241.441406 392.824219 241.433594 392.824219 241.425781 392.824219 C 241.417969 392.824219 241.410156 392.824219 241.40625 392.824219 C 241.355469 392.824219 241.304688 392.824219 241.257812 392.824219 C 241.246094 392.824219 241.238281 392.824219 241.230469 392.824219 L 241.230469 392.828125 C 238.105469 392.914062 234.082031 394.070312 233.152344 396.851562 C 232.230469 399.601562 232 403.164062 232.449219 405.398438 C 232.152344 405.5 232.039062 406.277344 232.203125 407.199219 C 232.371094 408.148438 232.765625 408.875 233.082031 408.820312 C 233.167969 408.804688 233.234375 408.726562 233.289062 408.609375 C 233.820312 411.15625 234.71875 413.714844 236.070312 415.601562 L 236.070312 418.5 C 236.023438 418.453125 234.832031 419.582031 234.863281 419.617188 " fill-opacity="1" fill-rule="nonzero"/></g><g fill="#ffffff" fill-opacity="1"><g transform="translate(298.208986, 412.309245)"><g><path d="M 3.351562 0 L 3.351562 -5.03125 L 8.527344 -5.03125 L 8.527344 0 L 10.804688 0 L 10.804688 -12.070312 L 8.527344 -12.070312 L 8.527344 -7.070312 L 3.351562 -7.070312 L 3.351562 -12.070312 L 1.074219 -12.070312 L 1.074219 0 Z M 3.351562 0 "/></g></g></g><g fill="#ffffff" fill-opacity="1"><g transform="translate(310.102353, 412.309245)"><g><path d="M 5.867188 0.222656 C 8.714844 0.222656 10.375 -1.21875 10.375 -3.496094 C 10.375 -6.230469 7.988281 -6.769531 5.980469 -7.214844 C 4.507812 -7.546875 3.210938 -7.828125 3.210938 -8.9375 C 3.210938 -9.855469 4.035156 -10.34375 5.171875 -10.34375 C 6.40625 -10.34375 7.433594 -9.757812 7.734375 -8.476562 L 10.058594 -8.476562 C 9.679688 -11.089844 7.546875 -12.289062 5.21875 -12.289062 C 2.785156 -12.289062 0.949219 -11.074219 0.949219 -8.746094 C 0.949219 -6.199219 3.195312 -5.710938 5.171875 -5.265625 C 6.707031 -4.933594 8.082031 -4.632812 8.082031 -3.386719 C 8.082031 -2.230469 7.132812 -1.722656 5.882812 -1.722656 C 4.617188 -1.722656 3.304688 -2.199219 2.910156 -3.921875 L 0.554688 -3.921875 C 0.855469 -0.808594 3.542969 0.222656 5.867188 0.222656 Z M 5.867188 0.222656 "/></g></g></g><g fill="#ffffff" fill-opacity="1"><g transform="translate(321.11005, 412.309245)"><g><path d="M 9.128906 0 L 9.128906 -2.039062 L 3.351562 -2.039062 L 3.351562 -5.03125 L 8.527344 -5.03125 L 8.527344 -7.054688 L 3.351562 -7.054688 L 3.351562 -10.027344 L 9.128906 -10.027344 L 9.128906 -12.070312 L 1.074219 -12.070312 L 1.074219 0 Z M 9.128906 0 "/></g></g></g><g fill="#ffffff" fill-opacity="1"><g transform="translate(294.966974, 430.454649)"><g><path d="M 8.460938 0 L 8.460938 -2.039062 L 3.351562 -2.039062 L 3.351562 -12.070312 L 1.074219 -12.070312 L 1.074219 0 Z M 8.460938 0 "/></g></g></g><g fill="#ffffff" fill-opacity="1"><g transform="translate(303.602319, 430.454649)"><g><path d="M 2.039062 -9.855469 C 2.753906 -9.855469 3.351562 -10.328125 3.351562 -11.074219 C 3.351562 -11.785156 2.753906 -12.289062 2.039062 -12.289062 C 1.3125 -12.289062 0.726562 -11.785156 0.726562 -11.074219 C 0.726562 -10.328125 1.3125 -9.855469 2.039062 -9.855469 Z M 3.101562 0 L 3.101562 -8.875 L 0.964844 -8.875 L 0.964844 0 Z M 3.101562 0 "/></g></g></g><g fill="#ffffff" fill-opacity="1"><g transform="translate(307.682762, 430.454649)"><g><path d="M 4.539062 0.175781 C 5.582031 0.175781 6.34375 -0.125 7.054688 -1.125 L 7.054688 0 L 9.191406 0 L 9.191406 -12.070312 L 7.054688 -12.070312 L 7.054688 -7.75 C 6.34375 -8.761719 5.582031 -9.0625 4.539062 -9.0625 C 2.214844 -9.0625 0.632812 -7.164062 0.632812 -4.445312 C 0.632812 -1.722656 2.214844 0.175781 4.539062 0.175781 Z M 5.03125 -1.660156 C 3.667969 -1.660156 2.785156 -2.832031 2.785156 -4.445312 C 2.785156 -6.058594 3.667969 -7.230469 5.03125 -7.230469 C 6.390625 -7.230469 7.324219 -6.089844 7.324219 -4.445312 C 7.324219 -2.800781 6.390625 -1.660156 5.03125 -1.660156 Z M 5.03125 -1.660156 "/></g></g></g><g fill="#ffffff" fill-opacity="1"><g transform="translate(317.852221, 430.454649)"><g><path d="M 5.125 0.175781 C 7.496094 0.175781 8.859375 -1.265625 9.378906 -2.988281 L 7.195312 -2.988281 C 6.914062 -2.261719 6.214844 -1.660156 5.203125 -1.660156 C 4.285156 -1.660156 3.558594 -2.136719 3.148438 -2.957031 C 2.988281 -3.226562 2.847656 -3.621094 2.816406 -4.003906 L 9.523438 -4.003906 L 9.523438 -4.460938 C 9.523438 -7.671875 7.355469 -9.0625 5.0625 -9.0625 C 2.023438 -9.0625 0.601562 -6.707031 0.601562 -4.382812 C 0.601562 -1.753906 2.40625 0.175781 5.125 0.175781 Z M 2.910156 -5.597656 C 2.941406 -5.835938 3.019531 -6.136719 3.257812 -6.421875 C 3.667969 -7.054688 4.335938 -7.371094 5.125 -7.371094 C 5.898438 -7.371094 6.597656 -7.054688 7.007812 -6.421875 C 7.230469 -6.152344 7.308594 -5.835938 7.339844 -5.597656 Z M 2.910156 -5.597656 "/></g></g></g><g fill="#ffffff" fill-opacity="1"><g transform="translate(327.974238, 430.454649)"><g><path d="M 3.101562 0 L 3.101562 -4.113281 C 3.101562 -5.285156 3.335938 -5.996094 3.8125 -6.46875 C 4.160156 -6.800781 4.667969 -7.007812 5.394531 -7.007812 L 5.882812 -7.007812 L 5.882812 -9.0625 L 5.632812 -9.0625 C 4.585938 -9.0625 3.78125 -8.746094 3.101562 -7.8125 L 3.101562 -8.875 L 0.964844 -8.875 L 0.964844 0 Z M 3.101562 0 "/></g></g></g><g clip-path="url(#4c7a91d2f0)"><g clip-path="url(#f7960c0be9)"><path fill="#2f5597" d="M 380.851562 316.195312 L 567.03125 316.195312 L 567.03125 381.589844 L 380.851562 381.589844 Z M 380.851562 316.195312 " fill-opacity="1" fill-rule="nonzero"/></g></g><g clip-path="url(#0afa0cdee7)"><path fill="#92acdf" d="M 447.652344 348.179688 C 447.652344 363.210938 435.46875 375.394531 420.433594 375.394531 C 405.402344 375.394531 393.21875 363.210938 393.21875 348.179688 C 393.21875 333.144531 405.402344 320.960938 420.433594 320.960938 C 435.46875 320.960938 447.652344 333.144531 447.652344 348.179688 " fill-opacity="1" fill-rule="nonzero"/></g><g clip-path="url(#aa0ceb9016)"><path fill="#cedaf0" d="M 413.871094 352.476562 C 408.835938 357.070312 403.46875 356.800781 400.382812 359.890625 C 399.605469 360.664062 398.960938 362.246094 398.429688 364.195312 C 403.378906 370.984375 411.390625 375.394531 420.433594 375.394531 C 429.480469 375.394531 437.492188 370.984375 442.441406 364.195312 C 441.910156 362.246094 441.265625 360.664062 440.488281 359.890625 C 437.402344 356.800781 432.035156 357.070312 426.996094 352.476562 C 427.027344 352.4375 425.835938 351.3125 425.789062 351.355469 L 425.789062 348.457031 C 427.140625 346.570312 428.039062 344.011719 428.570312 341.46875 C 428.625 341.582031 428.695312 341.664062 428.78125 341.675781 C 429.09375 341.730469 429.488281 341.007812 429.65625 340.054688 C 429.820312 339.136719 429.707031 338.355469 429.414062 338.253906 C 429.863281 336.023438 429.628906 332.457031 428.707031 329.710938 C 427.777344 326.929688 423.753906 325.769531 420.628906 325.6875 L 420.628906 325.679688 C 420.621094 325.679688 420.613281 325.679688 420.605469 325.679688 C 420.550781 325.679688 420.503906 325.679688 420.457031 325.679688 C 420.449219 325.679688 420.441406 325.679688 420.433594 325.679688 C 420.425781 325.679688 420.421875 325.679688 420.414062 325.679688 C 420.363281 325.679688 420.316406 325.679688 420.265625 325.679688 C 420.253906 325.679688 420.246094 325.679688 420.238281 325.679688 L 420.238281 325.6875 C 417.113281 325.769531 413.089844 326.929688 412.160156 329.710938 C 411.242188 332.457031 411.007812 336.023438 411.457031 338.253906 C 411.160156 338.355469 411.050781 339.136719 411.210938 340.054688 C 411.378906 341.007812 411.773438 341.730469 412.089844 341.675781 C 412.175781 341.664062 412.242188 341.582031 412.300781 341.46875 C 412.828125 344.011719 413.730469 346.570312 415.078125 348.457031 L 415.078125 351.355469 C 415.035156 351.3125 413.839844 352.4375 413.871094 352.476562 " fill-opacity="1" fill-rule="nonzero"/></g><g fill="#ffffff" fill-opacity="1"><g transform="translate(477.217718, 345.1662)"><g><path d="M 3.351562 0 L 3.351562 -5.03125 L 8.527344 -5.03125 L 8.527344 0 L 10.804688 0 L 10.804688 -12.070312 L 8.527344 -12.070312 L 8.527344 -7.070312 L 3.351562 -7.070312 L 3.351562 -12.070312 L 1.074219 -12.070312 L 1.074219 0 Z M 3.351562 0 "/></g></g></g><g fill="#ffffff" fill-opacity="1"><g transform="translate(489.111085, 345.1662)"><g><path d="M 5.867188 0.222656 C 8.714844 0.222656 10.375 -1.21875 10.375 -3.496094 C 10.375 -6.230469 7.988281 -6.769531 5.980469 -7.214844 C 4.507812 -7.546875 3.210938 -7.828125 3.210938 -8.9375 C 3.210938 -9.855469 4.035156 -10.34375 5.171875 -10.34375 C 6.40625 -10.34375 7.433594 -9.757812 7.734375 -8.476562 L 10.058594 -8.476562 C 9.679688 -11.089844 7.546875 -12.289062 5.21875 -12.289062 C 2.785156 -12.289062 0.949219 -11.074219 0.949219 -8.746094 C 0.949219 -6.199219 3.195312 -5.710938 5.171875 -5.265625 C 6.707031 -4.933594 8.082031 -4.632812 8.082031 -3.386719 C 8.082031 -2.230469 7.132812 -1.722656 5.882812 -1.722656 C 4.617188 -1.722656 3.304688 -2.199219 2.910156 -3.921875 L 0.554688 -3.921875 C 0.855469 -0.808594 3.542969 0.222656 5.867188 0.222656 Z M 5.867188 0.222656 "/></g></g></g><g fill="#ffffff" fill-opacity="1"><g transform="translate(500.118783, 345.1662)"><g><path d="M 9.128906 0 L 9.128906 -2.039062 L 3.351562 -2.039062 L 3.351562 -5.03125 L 8.527344 -5.03125 L 8.527344 -7.054688 L 3.351562 -7.054688 L 3.351562 -10.027344 L 9.128906 -10.027344 L 9.128906 -12.070312 L 1.074219 -12.070312 L 1.074219 0 Z M 9.128906 0 "/></g></g></g><g fill="#ffffff" fill-opacity="1"><g transform="translate(473.975707, 363.311604)"><g><path d="M 8.460938 0 L 8.460938 -2.039062 L 3.351562 -2.039062 L 3.351562 -12.070312 L 1.074219 -12.070312 L 1.074219 0 Z M 8.460938 0 "/></g></g></g><g fill="#ffffff" fill-opacity="1"><g transform="translate(482.611051, 363.311604)"><g><path d="M 2.039062 -9.855469 C 2.753906 -9.855469 3.351562 -10.328125 3.351562 -11.074219 C 3.351562 -11.785156 2.753906 -12.289062 2.039062 -12.289062 C 1.3125 -12.289062 0.726562 -11.785156 0.726562 -11.074219 C 0.726562 -10.328125 1.3125 -9.855469 2.039062 -9.855469 Z M 3.101562 0 L 3.101562 -8.875 L 0.964844 -8.875 L 0.964844 0 Z M 3.101562 0 "/></g></g></g><g fill="#ffffff" fill-opacity="1"><g transform="translate(486.691494, 363.311604)"><g><path d="M 4.539062 0.175781 C 5.582031 0.175781 6.34375 -0.125 7.054688 -1.125 L 7.054688 0 L 9.191406 0 L 9.191406 -12.070312 L 7.054688 -12.070312 L 7.054688 -7.75 C 6.34375 -8.761719 5.582031 -9.0625 4.539062 -9.0625 C 2.214844 -9.0625 0.632812 -7.164062 0.632812 -4.445312 C 0.632812 -1.722656 2.214844 0.175781 4.539062 0.175781 Z M 5.03125 -1.660156 C 3.667969 -1.660156 2.785156 -2.832031 2.785156 -4.445312 C 2.785156 -6.058594 3.667969 -7.230469 5.03125 -7.230469 C 6.390625 -7.230469 7.324219 -6.089844 7.324219 -4.445312 C 7.324219 -2.800781 6.390625 -1.660156 5.03125 -1.660156 Z M 5.03125 -1.660156 "/></g></g></g><g fill="#ffffff" fill-opacity="1"><g transform="translate(496.860953, 363.311604)"><g><path d="M 5.125 0.175781 C 7.496094 0.175781 8.859375 -1.265625 9.378906 -2.988281 L 7.195312 -2.988281 C 6.914062 -2.261719 6.214844 -1.660156 5.203125 -1.660156 C 4.285156 -1.660156 3.558594 -2.136719 3.148438 -2.957031 C 2.988281 -3.226562 2.847656 -3.621094 2.816406 -4.003906 L 9.523438 -4.003906 L 9.523438 -4.460938 C 9.523438 -7.671875 7.355469 -9.0625 5.0625 -9.0625 C 2.023438 -9.0625 0.601562 -6.707031 0.601562 -4.382812 C 0.601562 -1.753906 2.40625 0.175781 5.125 0.175781 Z M 2.910156 -5.597656 C 2.941406 -5.835938 3.019531 -6.136719 3.257812 -6.421875 C 3.667969 -7.054688 4.335938 -7.371094 5.125 -7.371094 C 5.898438 -7.371094 6.597656 -7.054688 7.007812 -6.421875 C 7.230469 -6.152344 7.308594 -5.835938 7.339844 -5.597656 Z M 2.910156 -5.597656 "/></g></g></g><g fill="#ffffff" fill-opacity="1"><g transform="translate(506.98297, 363.311604)"><g><path d="M 3.101562 0 L 3.101562 -4.113281 C 3.101562 -5.285156 3.335938 -5.996094 3.8125 -6.46875 C 4.160156 -6.800781 4.667969 -7.007812 5.394531 -7.007812 L 5.882812 -7.007812 L 5.882812 -9.0625 L 5.632812 -9.0625 C 4.585938 -9.0625 3.78125 -8.746094 3.101562 -7.8125 L 3.101562 -8.875 L 0.964844 -8.875 L 0.964844 0 Z M 3.101562 0 "/></g></g></g><g clip-path="url(#f1479376a4)"><g clip-path="url(#1d910facab)"><path fill="#2f5597" d="M 565.761719 383.339844 L 751.9375 383.339844 L 751.9375 448.734375 L 565.761719 448.734375 Z M 565.761719 383.339844 " fill-opacity="1" fill-rule="nonzero"/></g></g><g clip-path="url(#e9545b02e3)"><path fill="#92acdf" d="M 632.5625 415.320312 C 632.5625 430.351562 620.375 442.539062 605.34375 442.539062 C 590.3125 442.539062 578.125 430.351562 578.125 415.320312 C 578.125 400.289062 590.3125 388.101562 605.34375 388.101562 C 620.375 388.101562 632.5625 400.289062 632.5625 415.320312 " fill-opacity="1" fill-rule="nonzero"/></g><g clip-path="url(#f63f9d1339)"><path fill="#cedaf0" d="M 598.777344 419.617188 C 593.742188 424.210938 588.375 423.941406 585.289062 427.03125 C 584.511719 427.808594 583.871094 429.390625 583.335938 431.339844 C 588.289062 438.128906 596.300781 442.539062 605.34375 442.539062 C 614.386719 442.539062 622.398438 438.128906 627.347656 431.339844 C 626.816406 429.390625 626.171875 427.808594 625.398438 427.03125 C 622.308594 423.941406 616.945312 424.210938 611.90625 419.617188 C 611.9375 419.582031 610.742188 418.453125 610.699219 418.5 L 610.699219 415.601562 C 612.050781 413.714844 612.949219 411.15625 613.476562 408.609375 C 613.53125 408.726562 613.601562 408.804688 613.6875 408.820312 C 614.003906 408.875 614.398438 408.148438 614.566406 407.199219 C 614.726562 406.277344 614.613281 405.5 614.320312 405.398438 C 614.769531 403.164062 614.535156 399.601562 613.617188 396.851562 C 612.6875 394.070312 608.664062 392.914062 605.539062 392.828125 L 605.539062 392.824219 C 605.527344 392.824219 605.519531 392.824219 605.511719 392.824219 C 605.460938 392.824219 605.414062 392.824219 605.363281 392.824219 C 605.355469 392.824219 605.351562 392.824219 605.34375 392.824219 C 605.335938 392.824219 605.328125 392.824219 605.320312 392.824219 C 605.273438 392.824219 605.222656 392.824219 605.171875 392.824219 C 605.164062 392.824219 605.15625 392.824219 605.148438 392.824219 L 605.148438 392.828125 C 602.023438 392.914062 597.996094 394.070312 597.070312 396.851562 C 596.148438 399.601562 595.917969 403.164062 596.363281 405.398438 C 596.070312 405.5 595.957031 406.277344 596.121094 407.199219 C 596.289062 408.148438 596.679688 408.875 596.996094 408.820312 C 597.082031 408.804688 597.152344 408.726562 597.207031 408.609375 C 597.738281 411.15625 598.636719 413.714844 599.988281 415.601562 L 599.988281 418.5 C 599.941406 418.453125 598.746094 419.582031 598.777344 419.617188 " fill-opacity="1" fill-rule="nonzero"/></g><g fill="#ffffff" fill-opacity="1"><g transform="translate(662.125806, 412.309245)"><g><path d="M 3.351562 0 L 3.351562 -5.03125 L 8.527344 -5.03125 L 8.527344 0 L 10.804688 0 L 10.804688 -12.070312 L 8.527344 -12.070312 L 8.527344 -7.070312 L 3.351562 -7.070312 L 3.351562 -12.070312 L 1.074219 -12.070312 L 1.074219 0 Z M 3.351562 0 "/></g></g></g><g fill="#ffffff" fill-opacity="1"><g transform="translate(674.019173, 412.309245)"><g><path d="M 5.867188 0.222656 C 8.714844 0.222656 10.375 -1.21875 10.375 -3.496094 C 10.375 -6.230469 7.988281 -6.769531 5.980469 -7.214844 C 4.507812 -7.546875 3.210938 -7.828125 3.210938 -8.9375 C 3.210938 -9.855469 4.035156 -10.34375 5.171875 -10.34375 C 6.40625 -10.34375 7.433594 -9.757812 7.734375 -8.476562 L 10.058594 -8.476562 C 9.679688 -11.089844 7.546875 -12.289062 5.21875 -12.289062 C 2.785156 -12.289062 0.949219 -11.074219 0.949219 -8.746094 C 0.949219 -6.199219 3.195312 -5.710938 5.171875 -5.265625 C 6.707031 -4.933594 8.082031 -4.632812 8.082031 -3.386719 C 8.082031 -2.230469 7.132812 -1.722656 5.882812 -1.722656 C 4.617188 -1.722656 3.304688 -2.199219 2.910156 -3.921875 L 0.554688 -3.921875 C 0.855469 -0.808594 3.542969 0.222656 5.867188 0.222656 Z M 5.867188 0.222656 "/></g></g></g><g fill="#ffffff" fill-opacity="1"><g transform="translate(685.026871, 412.309245)"><g><path d="M 9.128906 0 L 9.128906 -2.039062 L 3.351562 -2.039062 L 3.351562 -5.03125 L 8.527344 -5.03125 L 8.527344 -7.054688 L 3.351562 -7.054688 L 3.351562 -10.027344 L 9.128906 -10.027344 L 9.128906 -12.070312 L 1.074219 -12.070312 L 1.074219 0 Z M 9.128906 0 "/></g></g></g><g fill="#ffffff" fill-opacity="1"><g transform="translate(658.883795, 430.454649)"><g><path d="M 8.460938 0 L 8.460938 -2.039062 L 3.351562 -2.039062 L 3.351562 -12.070312 L 1.074219 -12.070312 L 1.074219 0 Z M 8.460938 0 "/></g></g></g><g fill="#ffffff" fill-opacity="1"><g transform="translate(667.519139, 430.454649)"><g><path d="M 2.039062 -9.855469 C 2.753906 -9.855469 3.351562 -10.328125 3.351562 -11.074219 C 3.351562 -11.785156 2.753906 -12.289062 2.039062 -12.289062 C 1.3125 -12.289062 0.726562 -11.785156 0.726562 -11.074219 C 0.726562 -10.328125 1.3125 -9.855469 2.039062 -9.855469 Z M 3.101562 0 L 3.101562 -8.875 L 0.964844 -8.875 L 0.964844 0 Z M 3.101562 0 "/></g></g></g><g fill="#ffffff" fill-opacity="1"><g transform="translate(671.599582, 430.454649)"><g><path d="M 4.539062 0.175781 C 5.582031 0.175781 6.34375 -0.125 7.054688 -1.125 L 7.054688 0 L 9.191406 0 L 9.191406 -12.070312 L 7.054688 -12.070312 L 7.054688 -7.75 C 6.34375 -8.761719 5.582031 -9.0625 4.539062 -9.0625 C 2.214844 -9.0625 0.632812 -7.164062 0.632812 -4.445312 C 0.632812 -1.722656 2.214844 0.175781 4.539062 0.175781 Z M 5.03125 -1.660156 C 3.667969 -1.660156 2.785156 -2.832031 2.785156 -4.445312 C 2.785156 -6.058594 3.667969 -7.230469 5.03125 -7.230469 C 6.390625 -7.230469 7.324219 -6.089844 7.324219 -4.445312 C 7.324219 -2.800781 6.390625 -1.660156 5.03125 -1.660156 Z M 5.03125 -1.660156 "/></g></g></g><g fill="#ffffff" fill-opacity="1"><g transform="translate(681.769042, 430.454649)"><g><path d="M 5.125 0.175781 C 7.496094 0.175781 8.859375 -1.265625 9.378906 -2.988281 L 7.195312 -2.988281 C 6.914062 -2.261719 6.214844 -1.660156 5.203125 -1.660156 C 4.285156 -1.660156 3.558594 -2.136719 3.148438 -2.957031 C 2.988281 -3.226562 2.847656 -3.621094 2.816406 -4.003906 L 9.523438 -4.003906 L 9.523438 -4.460938 C 9.523438 -7.671875 7.355469 -9.0625 5.0625 -9.0625 C 2.023438 -9.0625 0.601562 -6.707031 0.601562 -4.382812 C 0.601562 -1.753906 2.40625 0.175781 5.125 0.175781 Z M 2.910156 -5.597656 C 2.941406 -5.835938 3.019531 -6.136719 3.257812 -6.421875 C 3.667969 -7.054688 4.335938 -7.371094 5.125 -7.371094 C 5.898438 -7.371094 6.597656 -7.054688 7.007812 -6.421875 C 7.230469 -6.152344 7.308594 -5.835938 7.339844 -5.597656 Z M 2.910156 -5.597656 "/></g></g></g><g fill="#ffffff" fill-opacity="1"><g transform="translate(691.891058, 430.454649)"><g><path d="M 3.101562 0 L 3.101562 -4.113281 C 3.101562 -5.285156 3.335938 -5.996094 3.8125 -6.46875 C 4.160156 -6.800781 4.667969 -7.007812 5.394531 -7.007812 L 5.882812 -7.007812 L 5.882812 -9.0625 L 5.632812 -9.0625 C 4.585938 -9.0625 3.78125 -8.746094 3.101562 -7.8125 L 3.101562 -8.875 L 0.964844 -8.875 L 0.964844 0 Z M 3.101562 0 "/></g></g></g></svg>