<svg xmlns="http://www.w3.org/2000/svg" xmlns:xlink="http://www.w3.org/1999/xlink" width="1024" zoomAndPan="magnify" viewBox="0 0 768 576" height="768" preserveAspectRatio="xMidYMid meet" version="1.0"><defs><g/><clipPath id="59147e0493"><path d="M 271.84375 255.847656 L 455.742188 255.847656 L 455.742188 319.550781 L 271.84375 319.550781 Z M 271.84375 255.847656 " clip-rule="nonzero"/></clipPath><clipPath id="438237cd25"><path d="M 455.742188 287.699219 L 436.21875 319.550781 L 291.371094 319.550781 L 271.84375 287.699219 L 291.371094 255.847656 L 436.21875 255.847656 L 455.742188 287.699219 " clip-rule="nonzero"/></clipPath><clipPath id="48ac1e09c5"><path d="M 291.160156 260.769531 L 345.910156 260.769531 L 345.910156 315.519531 L 291.160156 315.519531 Z M 291.160156 260.769531 " clip-rule="nonzero"/></clipPath><clipPath id="1c3ce66dd7"><path d="M 296 265 L 341 265 L 341 315.519531 L 296 315.519531 Z M 296 265 " clip-rule="nonzero"/></clipPath><clipPath id="eb7214ed3e"><path d="M 501.625 18.011719 L 658.023438 18.011719 L 658.023438 72.945312 L 501.625 72.945312 Z M 501.625 18.011719 " clip-rule="nonzero"/></clipPath><clipPath id="d02042e5c9"><path d="M 658.023438 45.480469 L 641.1875 72.945312 L 518.464844 72.945312 L 501.625 45.480469 L 518.464844 18.011719 L 641.1875 18.011719 L 658.023438 45.480469 " clip-rule="nonzero"/></clipPath><clipPath id="1c188cc179"><path d="M 69.238281 17.339844 L 225.632812 17.339844 L 225.632812 72.273438 L 69.238281 72.273438 Z M 69.238281 17.339844 " clip-rule="nonzero"/></clipPath><clipPath id="33428c9a13"><path d="M 225.632812 44.804688 L 208.796875 72.273438 L 86.074219 72.273438 L 69.238281 44.804688 L 86.074219 17.339844 L 208.796875 17.339844 L 225.632812 44.804688 " clip-rule="nonzero"/></clipPath><clipPath id="856d1d5051"><path d="M 512.011719 22.015625 L 557.761719 22.015625 L 557.761719 67.765625 L 512.011719 67.765625 Z M 512.011719 22.015625 " clip-rule="nonzero"/></clipPath><clipPath id="3decdb0584"><path d="M 516 25 L 554 25 L 554 67.765625 L 516 67.765625 Z M 516 25 " clip-rule="nonzero"/></clipPath><clipPath id="110b333c23"><path d="M 79.625 21.339844 L 125.375 21.339844 L 125.375 67.089844 L 79.625 67.089844 Z M 79.625 21.339844 " clip-rule="nonzero"/></clipPath><clipPath id="edb6dcee9b"><path d="M 84 25 L 121 25 L 121 67.089844 L 84 67.089844 Z M 84 25 " clip-rule="nonzero"/></clipPath><clipPath id="4ea76efaa1"><path d="M 501.625 182.742188 L 658.023438 182.742188 L 658.023438 237.675781 L 501.625 237.675781 Z M 501.625 182.742188 " clip-rule="nonzero"/></clipPath><clipPath id="437e75703d"><path d="M 658.023438 210.207031 L 641.1875 237.675781 L 518.464844 237.675781 L 501.625 210.207031 L 518.464844 182.742188 L 641.1875 182.742188 L 658.023438 210.207031 " clip-rule="nonzero"/></clipPath><clipPath id="8104c8f1e6"><path d="M 512.011719 186.742188 L 557.761719 186.742188 L 557.761719 232.492188 L 512.011719 232.492188 Z M 512.011719 186.742188 " clip-rule="nonzero"/></clipPath><clipPath id="18d8ebc8c9"><path d="M 516 190 L 554 190 L 554 232.492188 L 516 232.492188 Z M 516 190 " clip-rule="nonzero"/></clipPath><clipPath id="079f59227b"><path d="M 68.007812 183.65625 L 224.402344 183.65625 L 224.402344 238.589844 L 68.007812 238.589844 Z M 68.007812 183.65625 " clip-rule="nonzero"/></clipPath><clipPath id="8c0c5e2d2a"><path d="M 224.402344 211.121094 L 207.566406 238.589844 L 84.84375 238.589844 L 68.007812 211.121094 L 84.84375 183.65625 L 207.566406 183.65625 L 224.402344 211.121094 " clip-rule="nonzero"/></clipPath><clipPath id="2e4cf6622a"><path d="M 78.394531 187.65625 L 124.144531 187.65625 L 124.144531 233.40625 L 78.394531 233.40625 Z M 78.394531 187.65625 " clip-rule="nonzero"/></clipPath><clipPath id="ad69185748"><path d="M 82 191 L 120 191 L 120 233.40625 L 82 233.40625 Z M 82 191 " clip-rule="nonzero"/></clipPath><clipPath id="c87de0e442"><path d="M 501.625 335.144531 L 658.023438 335.144531 L 658.023438 390.082031 L 501.625 390.082031 Z M 501.625 335.144531 " clip-rule="nonzero"/></clipPath><clipPath id="8d7cb23554"><path d="M 658.023438 362.613281 L 641.1875 390.082031 L 518.464844 390.082031 L 501.625 362.613281 L 518.464844 335.144531 L 641.1875 335.144531 L 658.023438 362.613281 " clip-rule="nonzero"/></clipPath><clipPath id="e943ffb39d"><path d="M 512.011719 339.148438 L 557.761719 339.148438 L 557.761719 384.898438 L 512.011719 384.898438 Z M 512.011719 339.148438 " clip-rule="nonzero"/></clipPath><clipPath id="b17e8ebaff"><path d="M 516 343 L 554 343 L 554 384.898438 L 516 384.898438 Z M 516 343 " clip-rule="nonzero"/></clipPath><clipPath id="d2ea1d4aa7"><path d="M 68.007812 336.058594 L 224.402344 336.058594 L 224.402344 390.996094 L 68.007812 390.996094 Z M 68.007812 336.058594 " clip-rule="nonzero"/></clipPath><clipPath id="1f003087a2"><path d="M 224.402344 363.527344 L 207.566406 390.996094 L 84.84375 390.996094 L 68.007812 363.527344 L 84.84375 336.058594 L 207.566406 336.058594 L 224.402344 363.527344 " clip-rule="nonzero"/></clipPath><clipPath id="08b3fa60db"><path d="M 78.394531 340.0625 L 124.144531 340.0625 L 124.144531 385.8125 L 78.394531 385.8125 Z M 78.394531 340.0625 " clip-rule="nonzero"/></clipPath><clipPath id="4de0f1dc34"><path d="M 82 344 L 120 344 L 120 385.8125 L 82 385.8125 Z M 82 344 " clip-rule="nonzero"/></clipPath><clipPath id="f6dfc8f305"><path d="M 500.664062 503.054688 L 657.0625 503.054688 L 657.0625 557.988281 L 500.664062 557.988281 Z M 500.664062 503.054688 " clip-rule="nonzero"/></clipPath><clipPath id="a35af11253"><path d="M 657.0625 530.519531 L 640.226562 557.988281 L 517.503906 557.988281 L 500.664062 530.519531 L 517.503906 503.054688 L 640.226562 503.054688 L 657.0625 530.519531 " clip-rule="nonzero"/></clipPath><clipPath id="126e29dfae"><path d="M 511.050781 507.054688 L 556.800781 507.054688 L 556.800781 552.804688 L 511.050781 552.804688 Z M 511.050781 507.054688 " clip-rule="nonzero"/></clipPath><clipPath id="6fdea89889"><path d="M 515 511 L 553 511 L 553 552.804688 L 515 552.804688 Z M 515 511 " clip-rule="nonzero"/></clipPath><clipPath id="1bb6dccf8b"><path d="M 68.277344 502.378906 L 224.671875 502.378906 L 224.671875 557.3125 L 68.277344 557.3125 Z M 68.277344 502.378906 " clip-rule="nonzero"/></clipPath><clipPath id="8a0040eebe"><path d="M 224.671875 529.84375 L 207.835938 557.3125 L 85.113281 557.3125 L 68.277344 529.84375 L 85.113281 502.378906 L 207.835938 502.378906 L 224.671875 529.84375 " clip-rule="nonzero"/></clipPath><clipPath id="efb4bdeecc"><path d="M 78.664062 506.378906 L 124.414062 506.378906 L 124.414062 552.128906 L 78.664062 552.128906 Z M 78.664062 506.378906 " clip-rule="nonzero"/></clipPath><clipPath id="75951141e7"><path d="M 83 510 L 121 510 L 121 552.128906 L 83 552.128906 Z M 83 510 " clip-rule="nonzero"/></clipPath></defs><path stroke-linecap="butt" transform="matrix(-0.000741875, 0.750144, -0.75, -0.000741732, 469.560628, 44.747317)" fill="none" stroke-linejoin="miter" d="M -0.00113921 0.497506 L 647.874231 0.502482 " stroke="#000000" stroke-width="1" stroke-opacity="1" stroke-miterlimit="4"/><path stroke-linecap="butt" transform="matrix(-0.000741875, 0.750144, -0.75, -0.000741732, 257.593993, 43.45798)" fill="none" stroke-linejoin="miter" d="M -0.000769761 0.500325 L 647.874595 0.500094 " stroke="#000000" stroke-width="1" stroke-opacity="1" stroke-miterlimit="4"/><path stroke-linecap="butt" transform="matrix(0.756876, 0, 0, 0.75, 469.666828, 45.105172)" fill="none" stroke-linejoin="miter" d="M 0.00150661 0.500396 L 42.610885 0.500396 " stroke="#000000" stroke-width="1" stroke-opacity="1" stroke-miterlimit="4"/><path stroke-linecap="butt" transform="matrix(0.756876, 0, 0, 0.75, 225.634707, 43.815841)" fill="none" stroke-linejoin="miter" d="M -0.00250252 0.500753 L 42.612037 0.500753 " stroke="#000000" stroke-width="1" stroke-opacity="1" stroke-miterlimit="4"/><path stroke-linecap="butt" transform="matrix(0.756876, 0, 0, 0.75, 468.705724, 210.313648)" fill="none" stroke-linejoin="miter" d="M 0.00172654 0.498469 L 42.611105 0.498469 " stroke="#000000" stroke-width="1" stroke-opacity="1" stroke-miterlimit="4"/><path stroke-linecap="butt" transform="matrix(0.756876, 0, 0, 0.75, 224.404135, 210.613708)" fill="none" stroke-linejoin="miter" d="M -0.00236723 0.499431 L 42.612172 0.499431 " stroke="#000000" stroke-width="1" stroke-opacity="1" stroke-miterlimit="4"/><path stroke-linecap="butt" transform="matrix(0.756876, 0, 0, 0.75, 257.594608, 287.32495)" fill="none" stroke-linejoin="miter" d="M -0.00113317 0.499024 L 42.613406 0.499024 " stroke="#000000" stroke-width="1" stroke-opacity="1" stroke-miterlimit="4"/><path stroke-linecap="butt" transform="matrix(0.756876, 0, 0, 0.75, 437.601366, 287.69995)" fill="none" stroke-linejoin="miter" d="M 0.000259928 0.499024 L 42.614799 0.499024 " stroke="#000000" stroke-width="1" stroke-opacity="1" stroke-miterlimit="4"/><path stroke-linecap="butt" transform="matrix(0.756876, 0, 0, 0.75, 469.666828, 362.852407)" fill="none" stroke-linejoin="miter" d="M 0.00150661 0.498874 L 42.610885 0.498874 " stroke="#000000" stroke-width="1" stroke-opacity="1" stroke-miterlimit="4"/><path stroke-linecap="butt" transform="matrix(0.756876, 0, 0, 0.75, 224.404135, 363.152465)" fill="none" stroke-linejoin="miter" d="M -0.00236723 0.499839 L 42.612172 0.499839 " stroke="#000000" stroke-width="1" stroke-opacity="1" stroke-miterlimit="4"/><path stroke-linecap="butt" transform="matrix(0.756876, 0, 0, 0.75, 468.705724, 530.75911)" fill="none" stroke-linejoin="miter" d="M 0.00172654 0.49827 L 42.611105 0.49827 " stroke="#000000" stroke-width="1" stroke-opacity="1" stroke-miterlimit="4"/><path stroke-linecap="butt" transform="matrix(0.756876, 0, 0, 0.75, 225.634707, 529.469758)" fill="none" stroke-linejoin="miter" d="M -0.00250252 0.498656 L 42.612037 0.498656 " stroke="#000000" stroke-width="1" stroke-opacity="1" stroke-miterlimit="4"/><g clip-path="url(#59147e0493)"><g clip-path="url(#438237cd25)"><path fill="#2f5597" d="M 271.84375 255.847656 L 455.742188 255.847656 L 455.742188 319.550781 L 271.84375 319.550781 Z M 271.84375 255.847656 " fill-opacity="1" fill-rule="nonzero"/></g></g><g fill="#ffffff" fill-opacity="1"><g transform="translate(371.374261, 296.32495)"><g><path d="M 6.960938 0 C 13.128906 0 16.535156 -3.289062 16.535156 -9.144531 C 16.535156 -15.023438 13.152344 -18.3125 6.960938 -18.3125 L 1.632812 -18.3125 L 1.632812 0 Z M 5.089844 -15.214844 L 6.9375 -15.214844 C 10.632812 -15.214844 13.078125 -13.390625 13.078125 -9.144531 C 13.078125 -4.609375 10.558594 -3.097656 6.910156 -3.097656 L 5.089844 -3.097656 Z M 5.089844 -15.214844 "/></g></g></g><g fill="#ffffff" fill-opacity="1"><g transform="translate(388.846299, 296.32495)"><g><path d="M 2.976562 0.265625 C 3.984375 0.265625 4.847656 -0.601562 4.847656 -1.679688 C 4.847656 -2.6875 3.984375 -3.574219 2.976562 -3.574219 C 1.921875 -3.574219 1.007812 -2.710938 1.007812 -1.679688 C 1.007812 -0.601562 1.894531 0.265625 2.976562 0.265625 Z M 2.976562 0.265625 "/></g></g></g><g fill="#ffffff" fill-opacity="1"><g transform="translate(394.702309, 296.32495)"><g><path d="M 8.902344 0.335938 C 13.222656 0.335938 15.742188 -1.847656 15.742188 -5.304688 C 15.742188 -9.457031 12.121094 -10.273438 9.070312 -10.945312 C 6.839844 -11.449219 4.871094 -11.878906 4.871094 -13.558594 C 4.871094 -14.953125 6.121094 -15.695312 7.847656 -15.695312 C 9.71875 -15.695312 11.28125 -14.808594 11.734375 -12.863281 L 15.265625 -12.863281 C 14.6875 -16.824219 11.449219 -18.648438 7.921875 -18.648438 C 4.222656 -18.648438 1.441406 -16.800781 1.441406 -13.273438 C 1.441406 -9.40625 4.847656 -8.664062 7.847656 -7.992188 C 10.175781 -7.488281 12.265625 -7.03125 12.265625 -5.136719 C 12.265625 -3.382812 10.824219 -2.617188 8.929688 -2.617188 C 7.007812 -2.617188 5.015625 -3.335938 4.414062 -5.953125 L 0.839844 -5.953125 C 1.296875 -1.222656 5.375 0.335938 8.902344 0.335938 Z M 8.902344 0.335938 "/></g></g></g><g clip-path="url(#48ac1e09c5)"><path fill="#92acdf" d="M 345.910156 288.144531 C 345.910156 303.261719 333.65625 315.519531 318.535156 315.519531 C 303.417969 315.519531 291.160156 303.261719 291.160156 288.144531 C 291.160156 273.023438 303.417969 260.769531 318.535156 260.769531 C 333.65625 260.769531 345.910156 273.023438 345.910156 288.144531 " fill-opacity="1" fill-rule="nonzero"/></g><g clip-path="url(#1c3ce66dd7)"><path fill="#cedaf0" d="M 311.933594 292.464844 C 306.867188 297.085938 301.472656 296.816406 298.367188 299.921875 C 297.585938 300.703125 296.9375 302.292969 296.40625 304.253906 C 301.382812 311.082031 309.441406 315.519531 318.535156 315.519531 C 327.632812 315.519531 335.691406 311.082031 340.667969 304.253906 C 340.132812 302.292969 339.488281 300.703125 338.707031 299.921875 C 335.601562 296.816406 330.207031 297.085938 325.136719 292.464844 C 325.167969 292.429688 323.96875 291.292969 323.921875 291.339844 L 323.921875 288.425781 C 325.28125 286.527344 326.1875 283.953125 326.71875 281.394531 C 326.773438 281.511719 326.84375 281.589844 326.929688 281.605469 C 327.246094 281.660156 327.644531 280.929688 327.8125 279.972656 C 327.976562 279.050781 327.863281 278.265625 327.566406 278.164062 C 328.019531 275.917969 327.785156 272.332031 326.859375 269.570312 C 325.921875 266.773438 321.875 265.605469 318.734375 265.523438 L 318.734375 265.515625 C 318.722656 265.515625 318.714844 265.515625 318.707031 265.515625 C 318.65625 265.515625 318.609375 265.515625 318.558594 265.515625 C 318.550781 265.515625 318.542969 265.515625 318.535156 265.515625 C 318.53125 265.515625 318.523438 265.515625 318.515625 265.515625 C 318.464844 265.515625 318.417969 265.515625 318.367188 265.515625 C 318.355469 265.515625 318.347656 265.515625 318.339844 265.515625 L 318.339844 265.523438 C 315.195312 265.605469 311.148438 266.773438 310.214844 269.570312 C 309.289062 272.332031 309.054688 275.917969 309.507812 278.164062 C 309.210938 278.265625 309.097656 279.050781 309.261719 279.972656 C 309.429688 280.929688 309.824219 281.660156 310.144531 281.605469 C 310.230469 281.589844 310.296875 281.511719 310.355469 281.394531 C 310.886719 283.953125 311.792969 286.527344 313.148438 288.425781 L 313.148438 291.339844 C 313.105469 291.292969 311.902344 292.429688 311.933594 292.464844 " fill-opacity="1" fill-rule="nonzero"/></g><g clip-path="url(#eb7214ed3e)"><g clip-path="url(#d02042e5c9)"><path fill="#2f5597" d="M 501.625 18.011719 L 658.023438 18.011719 L 658.023438 72.945312 L 501.625 72.945312 Z M 501.625 18.011719 " fill-opacity="1" fill-rule="nonzero"/></g></g><g clip-path="url(#1c188cc179)"><g clip-path="url(#33428c9a13)"><path fill="#2f5597" d="M 69.238281 17.339844 L 225.632812 17.339844 L 225.632812 72.273438 L 69.238281 72.273438 Z M 69.238281 17.339844 " fill-opacity="1" fill-rule="nonzero"/></g></g><g clip-path="url(#856d1d5051)"><path fill="#92acdf" d="M 557.761719 44.890625 C 557.761719 57.523438 547.523438 67.765625 534.886719 67.765625 C 522.253906 67.765625 512.011719 57.523438 512.011719 44.890625 C 512.011719 32.253906 522.253906 22.015625 534.886719 22.015625 C 547.523438 22.015625 557.761719 32.253906 557.761719 44.890625 " fill-opacity="1" fill-rule="nonzero"/></g><g clip-path="url(#3decdb0584)"><path fill="#cedaf0" d="M 529.371094 48.5 C 525.136719 52.359375 520.628906 52.136719 518.035156 54.730469 C 517.382812 55.382812 516.839844 56.714844 516.394531 58.351562 C 520.554688 64.054688 527.289062 67.765625 534.886719 67.765625 C 542.488281 67.765625 549.222656 64.054688 553.382812 58.351562 C 552.933594 56.714844 552.394531 55.382812 551.742188 54.730469 C 549.148438 52.136719 544.636719 52.359375 540.402344 48.5 C 540.429688 48.46875 539.425781 47.523438 539.390625 47.558594 L 539.390625 45.125 C 540.523438 43.539062 541.28125 41.390625 541.726562 39.25 C 541.769531 39.347656 541.828125 39.414062 541.902344 39.425781 C 542.164062 39.472656 542.5 38.863281 542.636719 38.0625 C 542.773438 37.289062 542.679688 36.636719 542.433594 36.550781 C 542.8125 34.671875 542.613281 31.675781 541.839844 29.367188 C 541.058594 27.03125 537.679688 26.058594 535.050781 25.984375 L 535.050781 25.980469 C 535.042969 25.980469 535.039062 25.980469 535.03125 25.980469 C 534.988281 25.980469 534.945312 25.980469 534.90625 25.980469 C 534.898438 25.980469 534.894531 25.980469 534.886719 25.980469 C 534.882812 25.980469 534.875 25.980469 534.871094 25.980469 C 534.828125 25.980469 534.789062 25.980469 534.746094 25.980469 C 534.734375 25.980469 534.730469 25.980469 534.722656 25.980469 L 534.722656 25.984375 C 532.097656 26.058594 528.714844 27.03125 527.933594 29.367188 C 527.160156 31.675781 526.964844 34.671875 527.34375 36.550781 C 527.09375 36.636719 527 37.289062 527.136719 38.0625 C 527.277344 38.863281 527.609375 39.472656 527.875 39.425781 C 527.945312 39.414062 528.003906 39.347656 528.050781 39.25 C 528.496094 41.390625 529.25 43.539062 530.386719 45.125 L 530.386719 47.558594 C 530.347656 47.523438 529.34375 48.46875 529.371094 48.5 " fill-opacity="1" fill-rule="nonzero"/></g><g clip-path="url(#110b333c23)"><path fill="#92acdf" d="M 125.375 44.214844 C 125.375 56.847656 115.132812 67.089844 102.5 67.089844 C 89.867188 67.089844 79.625 56.847656 79.625 44.214844 C 79.625 31.582031 89.867188 21.339844 102.5 21.339844 C 115.132812 21.339844 125.375 31.582031 125.375 44.214844 " fill-opacity="1" fill-rule="nonzero"/></g><g clip-path="url(#edb6dcee9b)"><path fill="#cedaf0" d="M 96.980469 47.828125 C 92.75 51.6875 88.238281 51.460938 85.644531 54.058594 C 84.992188 54.707031 84.453125 56.039062 84.003906 57.675781 C 88.164062 63.382812 94.898438 67.089844 102.5 67.089844 C 110.097656 67.089844 116.832031 63.382812 120.992188 57.675781 C 120.546875 56.039062 120.003906 54.707031 119.351562 54.058594 C 116.757812 51.460938 112.25 51.6875 108.015625 47.828125 C 108.039062 47.792969 107.039062 46.847656 107 46.886719 L 107 44.449219 C 108.136719 42.863281 108.890625 40.714844 109.335938 38.574219 C 109.382812 38.671875 109.441406 38.738281 109.511719 38.75 C 109.777344 38.796875 110.109375 38.1875 110.25 37.386719 C 110.386719 36.613281 110.292969 35.960938 110.042969 35.875 C 110.421875 33.996094 110.226562 31 109.453125 28.691406 C 108.671875 26.355469 105.289062 25.382812 102.664062 25.3125 L 102.664062 25.308594 C 102.65625 25.308594 102.648438 25.308594 102.640625 25.308594 C 102.597656 25.308594 102.558594 25.308594 102.515625 25.308594 C 102.511719 25.308594 102.503906 25.308594 102.5 25.308594 C 102.492188 25.308594 102.488281 25.308594 102.480469 25.308594 C 102.441406 25.308594 102.398438 25.308594 102.355469 25.308594 C 102.347656 25.308594 102.339844 25.308594 102.332031 25.308594 L 102.332031 25.3125 C 99.707031 25.382812 96.324219 26.355469 95.546875 28.691406 C 94.769531 31 94.578125 33.996094 94.953125 35.875 C 94.703125 35.960938 94.609375 36.613281 94.746094 37.386719 C 94.890625 38.1875 95.21875 38.796875 95.484375 38.75 C 95.558594 38.738281 95.613281 38.671875 95.660156 38.574219 C 96.105469 40.714844 96.863281 42.863281 97.996094 44.449219 L 97.996094 46.886719 C 97.960938 46.847656 96.957031 47.792969 96.980469 47.828125 " fill-opacity="1" fill-rule="nonzero"/></g><g clip-path="url(#4ea76efaa1)"><g clip-path="url(#437e75703d)"><path fill="#2f5597" d="M 501.625 182.742188 L 658.023438 182.742188 L 658.023438 237.675781 L 501.625 237.675781 Z M 501.625 182.742188 " fill-opacity="1" fill-rule="nonzero"/></g></g><g clip-path="url(#8104c8f1e6)"><path fill="#92acdf" d="M 557.761719 209.617188 C 557.761719 222.25 547.523438 232.492188 534.886719 232.492188 C 522.253906 232.492188 512.011719 222.25 512.011719 209.617188 C 512.011719 196.984375 522.253906 186.742188 534.886719 186.742188 C 547.523438 186.742188 557.761719 196.984375 557.761719 209.617188 " fill-opacity="1" fill-rule="nonzero"/></g><g clip-path="url(#18d8ebc8c9)"><path fill="#cedaf0" d="M 529.371094 213.230469 C 525.136719 217.089844 520.628906 216.863281 518.035156 219.460938 C 517.382812 220.109375 516.839844 221.441406 516.394531 223.078125 C 520.554688 228.785156 527.289062 232.492188 534.886719 232.492188 C 542.488281 232.492188 549.222656 228.785156 553.382812 223.078125 C 552.933594 221.441406 552.394531 220.109375 551.742188 219.460938 C 549.148438 216.863281 544.636719 217.089844 540.402344 213.230469 C 540.429688 213.199219 539.425781 212.25 539.390625 212.289062 L 539.390625 209.851562 C 540.523438 208.265625 541.28125 206.117188 541.726562 203.976562 C 541.769531 204.074219 541.828125 204.140625 541.902344 204.152344 C 542.164062 204.199219 542.5 203.589844 542.636719 202.789062 C 542.773438 202.015625 542.679688 201.363281 542.433594 201.277344 C 542.8125 199.402344 542.613281 196.40625 541.839844 194.097656 C 541.058594 191.757812 537.679688 190.785156 535.050781 190.714844 L 535.050781 190.710938 C 535.042969 190.710938 535.039062 190.710938 535.03125 190.710938 C 534.988281 190.710938 534.945312 190.710938 534.90625 190.710938 C 534.898438 190.710938 534.894531 190.710938 534.886719 190.710938 C 534.882812 190.710938 534.875 190.710938 534.871094 190.710938 C 534.828125 190.710938 534.789062 190.710938 534.746094 190.710938 C 534.734375 190.710938 534.730469 190.710938 534.722656 190.710938 L 534.722656 190.714844 C 532.097656 190.785156 528.714844 191.757812 527.933594 194.097656 C 527.160156 196.40625 526.964844 199.402344 527.34375 201.277344 C 527.09375 201.363281 527 202.015625 527.136719 202.789062 C 527.277344 203.589844 527.609375 204.199219 527.875 204.152344 C 527.945312 204.140625 528.003906 204.074219 528.050781 203.976562 C 528.496094 206.117188 529.25 208.265625 530.386719 209.851562 L 530.386719 212.289062 C 530.347656 212.25 529.34375 213.199219 529.371094 213.230469 " fill-opacity="1" fill-rule="nonzero"/></g><g clip-path="url(#079f59227b)"><g clip-path="url(#8c0c5e2d2a)"><path fill="#2f5597" d="M 68.007812 183.65625 L 224.402344 183.65625 L 224.402344 238.589844 L 68.007812 238.589844 Z M 68.007812 183.65625 " fill-opacity="1" fill-rule="nonzero"/></g></g><g clip-path="url(#2e4cf6622a)"><path fill="#92acdf" d="M 124.144531 210.53125 C 124.144531 223.164062 113.902344 233.40625 101.269531 233.40625 C 88.636719 233.40625 78.394531 223.164062 78.394531 210.53125 C 78.394531 197.898438 88.636719 187.65625 101.269531 187.65625 C 113.902344 187.65625 124.144531 197.898438 124.144531 210.53125 " fill-opacity="1" fill-rule="nonzero"/></g><g clip-path="url(#ad69185748)"><path fill="#cedaf0" d="M 95.75 214.144531 C 91.519531 218.003906 87.007812 217.777344 84.414062 220.375 C 83.761719 221.023438 83.222656 222.355469 82.773438 223.992188 C 86.933594 229.699219 93.667969 233.40625 101.269531 233.40625 C 108.867188 233.40625 115.601562 229.699219 119.761719 223.996094 C 119.316406 222.355469 118.773438 221.023438 118.121094 220.375 C 115.527344 217.777344 111.019531 218.003906 106.785156 214.144531 C 106.808594 214.113281 105.808594 213.164062 105.769531 213.203125 L 105.769531 210.765625 C 106.90625 209.179688 107.660156 207.03125 108.105469 204.890625 C 108.152344 204.988281 108.210938 205.054688 108.28125 205.066406 C 108.546875 205.113281 108.878906 204.503906 109.019531 203.703125 C 109.15625 202.933594 109.0625 202.277344 108.8125 202.191406 C 109.191406 200.316406 108.996094 197.320312 108.222656 195.011719 C 107.441406 192.671875 104.058594 191.699219 101.433594 191.628906 L 101.433594 191.625 C 101.425781 191.625 101.417969 191.625 101.410156 191.625 C 101.367188 191.625 101.328125 191.625 101.285156 191.625 C 101.28125 191.625 101.273438 191.625 101.269531 191.625 C 101.261719 191.625 101.257812 191.625 101.25 191.625 C 101.207031 191.625 101.167969 191.625 101.125 191.625 C 101.117188 191.625 101.109375 191.625 101.101562 191.625 L 101.101562 191.628906 C 98.476562 191.699219 95.09375 192.671875 94.316406 195.011719 C 93.539062 197.320312 93.347656 200.316406 93.722656 202.191406 C 93.472656 202.277344 93.378906 202.933594 93.515625 203.703125 C 93.660156 204.503906 93.988281 205.113281 94.253906 205.066406 C 94.328125 205.054688 94.382812 204.988281 94.429688 204.890625 C 94.875 207.03125 95.632812 209.179688 96.765625 210.765625 L 96.765625 213.203125 C 96.730469 213.164062 95.726562 214.113281 95.75 214.144531 " fill-opacity="1" fill-rule="nonzero"/></g><g clip-path="url(#c87de0e442)"><g clip-path="url(#8d7cb23554)"><path fill="#2f5597" d="M 501.625 335.144531 L 658.023438 335.144531 L 658.023438 390.082031 L 501.625 390.082031 Z M 501.625 335.144531 " fill-opacity="1" fill-rule="nonzero"/></g></g><g clip-path="url(#e943ffb39d)"><path fill="#92acdf" d="M 557.761719 362.023438 C 557.761719 374.65625 547.523438 384.898438 534.886719 384.898438 C 522.253906 384.898438 512.011719 374.65625 512.011719 362.023438 C 512.011719 349.386719 522.253906 339.148438 534.886719 339.148438 C 547.523438 339.148438 557.761719 349.386719 557.761719 362.023438 " fill-opacity="1" fill-rule="nonzero"/></g><g clip-path="url(#b17e8ebaff)"><path fill="#cedaf0" d="M 529.371094 365.632812 C 525.136719 369.492188 520.628906 369.269531 518.035156 371.867188 C 517.382812 372.515625 516.839844 373.847656 516.394531 375.484375 C 520.554688 381.1875 527.289062 384.898438 534.886719 384.898438 C 542.488281 384.898438 549.222656 381.1875 553.382812 375.484375 C 552.933594 373.847656 552.394531 372.515625 551.742188 371.867188 C 549.148438 369.269531 544.636719 369.492188 540.402344 365.632812 C 540.429688 365.601562 539.425781 364.65625 539.390625 364.691406 L 539.390625 362.257812 C 540.523438 360.671875 541.28125 358.523438 541.726562 356.382812 C 541.769531 356.480469 541.828125 356.546875 541.902344 356.558594 C 542.164062 356.605469 542.5 355.996094 542.636719 355.195312 C 542.773438 354.421875 542.679688 353.769531 542.433594 353.683594 C 542.8125 351.804688 542.613281 348.808594 541.839844 346.5 C 541.058594 344.164062 537.679688 343.191406 535.050781 343.121094 L 535.050781 343.117188 C 535.042969 343.117188 535.039062 343.117188 535.03125 343.117188 C 534.988281 343.117188 534.945312 343.117188 534.90625 343.117188 C 534.898438 343.117188 534.894531 343.117188 534.886719 343.117188 C 534.882812 343.117188 534.875 343.117188 534.871094 343.117188 C 534.828125 343.117188 534.789062 343.117188 534.746094 343.117188 C 534.734375 343.117188 534.730469 343.117188 534.722656 343.117188 L 534.722656 343.121094 C 532.097656 343.191406 528.714844 344.164062 527.933594 346.5 C 527.160156 348.808594 526.964844 351.804688 527.34375 353.683594 C 527.09375 353.769531 527 354.421875 527.136719 355.195312 C 527.277344 355.996094 527.609375 356.605469 527.875 356.558594 C 527.945312 356.546875 528.003906 356.480469 528.050781 356.382812 C 528.496094 358.523438 529.25 360.671875 530.386719 362.257812 L 530.386719 364.691406 C 530.347656 364.65625 529.34375 365.601562 529.371094 365.632812 " fill-opacity="1" fill-rule="nonzero"/></g><g clip-path="url(#d2ea1d4aa7)"><g clip-path="url(#1f003087a2)"><path fill="#2f5597" d="M 68.007812 336.058594 L 224.402344 336.058594 L 224.402344 390.996094 L 68.007812 390.996094 Z M 68.007812 336.058594 " fill-opacity="1" fill-rule="nonzero"/></g></g><g clip-path="url(#08b3fa60db)"><path fill="#92acdf" d="M 124.144531 362.9375 C 124.144531 375.570312 113.902344 385.8125 101.269531 385.8125 C 88.636719 385.8125 78.394531 375.570312 78.394531 362.9375 C 78.394531 350.304688 88.636719 340.0625 101.269531 340.0625 C 113.902344 340.0625 124.144531 350.304688 124.144531 362.9375 " fill-opacity="1" fill-rule="nonzero"/></g><g clip-path="url(#4de0f1dc34)"><path fill="#cedaf0" d="M 95.75 366.546875 C 91.519531 370.410156 87.007812 370.183594 84.414062 372.78125 C 83.761719 373.429688 83.222656 374.761719 82.773438 376.398438 C 86.933594 382.101562 93.667969 385.8125 101.269531 385.8125 C 108.867188 385.8125 115.601562 382.105469 119.761719 376.398438 C 119.316406 374.761719 118.773438 373.429688 118.121094 372.78125 C 115.527344 370.183594 111.019531 370.410156 106.785156 366.546875 C 106.808594 366.515625 105.808594 365.570312 105.769531 365.605469 L 105.769531 363.171875 C 106.90625 361.585938 107.660156 359.4375 108.105469 357.296875 C 108.152344 357.394531 108.210938 357.460938 108.28125 357.472656 C 108.546875 357.519531 108.878906 356.910156 109.019531 356.109375 C 109.15625 355.335938 109.0625 354.683594 108.8125 354.597656 C 109.191406 352.71875 108.996094 349.722656 108.222656 347.414062 C 107.441406 345.078125 104.058594 344.105469 101.433594 344.035156 L 101.433594 344.03125 C 101.425781 344.03125 101.417969 344.03125 101.410156 344.03125 C 101.367188 344.03125 101.328125 344.03125 101.285156 344.03125 C 101.28125 344.03125 101.273438 344.03125 101.269531 344.03125 C 101.261719 344.03125 101.257812 344.03125 101.25 344.03125 C 101.207031 344.03125 101.167969 344.03125 101.125 344.03125 C 101.117188 344.03125 101.109375 344.03125 101.101562 344.03125 L 101.101562 344.035156 C 98.476562 344.105469 95.09375 345.078125 94.316406 347.414062 C 93.539062 349.722656 93.347656 352.71875 93.722656 354.597656 C 93.472656 354.683594 93.378906 355.335938 93.515625 356.109375 C 93.660156 356.910156 93.988281 357.519531 94.253906 357.472656 C 94.328125 357.460938 94.382812 357.394531 94.429688 357.296875 C 94.875 359.4375 95.632812 361.585938 96.765625 363.171875 L 96.765625 365.605469 C 96.730469 365.570312 95.726562 366.515625 95.75 366.546875 " fill-opacity="1" fill-rule="nonzero"/></g><g clip-path="url(#f6dfc8f305)"><g clip-path="url(#a35af11253)"><path fill="#2f5597" d="M 500.664062 503.054688 L 657.0625 503.054688 L 657.0625 557.988281 L 500.664062 557.988281 Z M 500.664062 503.054688 " fill-opacity="1" fill-rule="nonzero"/></g></g><g clip-path="url(#126e29dfae)"><path fill="#92acdf" d="M 556.800781 529.929688 C 556.800781 542.5625 546.558594 552.804688 533.925781 552.804688 C 521.292969 552.804688 511.050781 542.5625 511.050781 529.929688 C 511.050781 517.296875 521.292969 507.054688 533.925781 507.054688 C 546.558594 507.054688 556.800781 517.296875 556.800781 529.929688 " fill-opacity="1" fill-rule="nonzero"/></g><g clip-path="url(#6fdea89889)"><path fill="#cedaf0" d="M 528.410156 533.539062 C 524.175781 537.402344 519.667969 537.175781 517.074219 539.773438 C 516.421875 540.421875 515.878906 541.753906 515.433594 543.390625 C 519.59375 549.097656 526.324219 552.804688 533.925781 552.804688 C 541.527344 552.804688 548.261719 549.097656 552.421875 543.390625 C 551.972656 541.753906 551.433594 540.421875 550.78125 539.773438 C 548.1875 537.175781 543.675781 537.402344 539.441406 533.539062 C 539.46875 533.507812 538.464844 532.5625 538.429688 532.601562 L 538.429688 530.164062 C 539.5625 528.578125 540.320312 526.429688 540.765625 524.289062 C 540.808594 524.386719 540.867188 524.453125 540.941406 524.464844 C 541.203125 524.511719 541.535156 523.902344 541.675781 523.101562 C 541.8125 522.328125 541.71875 521.675781 541.472656 521.589844 C 541.847656 519.710938 541.652344 516.714844 540.878906 514.40625 C 540.097656 512.070312 536.71875 511.097656 534.089844 511.027344 L 534.089844 511.023438 C 534.082031 511.023438 534.078125 511.023438 534.070312 511.023438 C 534.027344 511.023438 533.984375 511.023438 533.945312 511.023438 C 533.9375 511.023438 533.933594 511.023438 533.925781 511.023438 C 533.921875 511.023438 533.914062 511.023438 533.910156 511.023438 C 533.867188 511.023438 533.828125 511.023438 533.785156 511.023438 C 533.773438 511.023438 533.769531 511.023438 533.761719 511.023438 L 533.761719 511.027344 C 531.136719 511.097656 527.753906 512.070312 526.972656 514.40625 C 526.199219 516.714844 526.003906 519.710938 526.382812 521.589844 C 526.132812 521.675781 526.039062 522.328125 526.175781 523.101562 C 526.316406 523.902344 526.648438 524.511719 526.914062 524.464844 C 526.984375 524.453125 527.042969 524.386719 527.089844 524.289062 C 527.535156 526.429688 528.289062 528.578125 529.425781 530.164062 L 529.425781 532.601562 C 529.386719 532.5625 528.382812 533.507812 528.410156 533.539062 " fill-opacity="1" fill-rule="nonzero"/></g><g clip-path="url(#1bb6dccf8b)"><g clip-path="url(#8a0040eebe)"><path fill="#2f5597" d="M 68.277344 502.378906 L 224.671875 502.378906 L 224.671875 557.3125 L 68.277344 557.3125 Z M 68.277344 502.378906 " fill-opacity="1" fill-rule="nonzero"/></g></g><g clip-path="url(#efb4bdeecc)"><path fill="#92acdf" d="M 124.414062 529.253906 C 124.414062 541.886719 114.171875 552.128906 101.539062 552.128906 C 88.902344 552.128906 78.664062 541.886719 78.664062 529.253906 C 78.664062 516.621094 88.902344 506.378906 101.539062 506.378906 C 114.171875 506.378906 124.414062 516.621094 124.414062 529.253906 " fill-opacity="1" fill-rule="nonzero"/></g><g clip-path="url(#75951141e7)"><path fill="#cedaf0" d="M 96.019531 532.867188 C 91.789062 536.726562 87.277344 536.5 84.683594 539.097656 C 84.03125 539.746094 83.492188 541.078125 83.042969 542.714844 C 87.203125 548.421875 93.9375 552.128906 101.539062 552.128906 C 109.136719 552.128906 115.871094 548.421875 120.03125 542.714844 C 119.585938 541.078125 119.042969 539.746094 118.390625 539.097656 C 115.796875 536.5 111.289062 536.726562 107.054688 532.867188 C 107.078125 532.835938 106.078125 531.886719 106.039062 531.925781 L 106.039062 529.488281 C 107.175781 527.902344 107.929688 525.753906 108.375 523.613281 C 108.421875 523.710938 108.480469 523.777344 108.550781 523.789062 C 108.816406 523.835938 109.148438 523.226562 109.289062 522.425781 C 109.425781 521.652344 109.328125 521 109.082031 520.914062 C 109.460938 519.039062 109.265625 516.042969 108.492188 513.734375 C 107.710938 511.394531 104.328125 510.421875 101.703125 510.351562 L 101.703125 510.347656 C 101.695312 510.347656 101.6875 510.347656 101.679688 510.347656 C 101.636719 510.347656 101.597656 510.347656 101.554688 510.347656 C 101.550781 510.347656 101.542969 510.347656 101.539062 510.347656 C 101.53125 510.347656 101.527344 510.347656 101.519531 510.347656 C 101.476562 510.347656 101.4375 510.347656 101.394531 510.347656 C 101.386719 510.347656 101.378906 510.347656 101.371094 510.347656 L 101.371094 510.351562 C 98.746094 510.421875 95.363281 511.394531 94.585938 513.734375 C 93.808594 516.042969 93.617188 519.039062 93.992188 520.914062 C 93.742188 521 93.648438 521.652344 93.785156 522.425781 C 93.929688 523.226562 94.257812 523.835938 94.523438 523.789062 C 94.597656 523.777344 94.652344 523.710938 94.699219 523.613281 C 95.144531 525.753906 95.902344 527.902344 97.035156 529.488281 L 97.035156 531.925781 C 97 531.886719 95.996094 532.835938 96.019531 532.867188 " fill-opacity="1" fill-rule="nonzero"/></g><g fill="#ffffff" fill-opacity="1"><g transform="translate(562.606153, 48.855169)"><g><path d="M 4.089844 0.140625 C 5.96875 0.140625 7.117188 -0.898438 7.328125 -2.480469 L 5.757812 -2.480469 C 5.609375 -1.578125 4.949219 -1.148438 4.050781 -1.148438 C 2.648438 -1.148438 1.890625 -2.230469 1.890625 -3.820312 C 1.890625 -5.398438 2.648438 -6.476562 4.050781 -6.476562 C 4.949219 -6.476562 5.617188 -6.046875 5.757812 -5.238281 L 7.328125 -5.238281 C 7.117188 -6.738281 5.96875 -7.769531 4.089844 -7.769531 C 1.558594 -7.769531 0.390625 -5.929688 0.390625 -3.820312 C 0.390625 -1.710938 1.558594 0.140625 4.089844 0.140625 Z M 4.089844 0.140625 "/></g></g></g><g fill="#ffffff" fill-opacity="1"><g transform="translate(570.273125, 48.855169)"><g><path d="M 4.089844 0.140625 C 6.617188 0.140625 7.796875 -1.710938 7.796875 -3.820312 C 7.796875 -5.929688 6.617188 -7.769531 4.089844 -7.769531 C 1.570312 -7.769531 0.390625 -5.929688 0.390625 -3.820312 C 0.390625 -1.710938 1.570312 0.140625 4.089844 0.140625 Z M 4.089844 -1.148438 C 2.699219 -1.148438 1.890625 -2.230469 1.890625 -3.820312 C 1.890625 -5.398438 2.699219 -6.46875 4.089844 -6.46875 C 5.5 -6.46875 6.296875 -5.398438 6.296875 -3.820312 C 6.296875 -2.230469 5.5 -1.148438 4.089844 -1.148438 Z M 4.089844 -1.148438 "/></g></g></g><g fill="#ffffff" fill-opacity="1"><g transform="translate(578.469879, 48.855169)"><g><path d="M 2.121094 0 L 2.121094 -5.46875 L 5.238281 0 L 6.867188 0 L 6.867188 -7.628906 L 5.429688 -7.628906 L 5.429688 -2.167969 L 2.300781 -7.628906 L 0.679688 -7.628906 L 0.679688 0 Z M 2.121094 0 "/></g></g></g><g fill="#ffffff" fill-opacity="1"><g transform="translate(586.016895, 48.855169)"><g><path d="M 3.867188 0 L 3.867188 -6.339844 L 6.1875 -6.339844 L 6.1875 -7.628906 L 0.101562 -7.628906 L 0.101562 -6.339844 L 2.429688 -6.339844 L 2.429688 0 Z M 3.867188 0 "/></g></g></g><g fill="#ffffff" fill-opacity="1"><g transform="translate(592.3144, 48.855169)"><g><path d="M 5.1875 -3.308594 C 5.929688 -3.660156 6.386719 -4.378906 6.386719 -5.378906 C 6.386719 -6.957031 5.398438 -7.628906 3.96875 -7.628906 L 0.679688 -7.628906 L 0.679688 0 L 2.121094 0 L 2.121094 -3.050781 L 3.820312 -3.050781 L 5.027344 0 L 6.558594 0 Z M 3.769531 -6.339844 C 4.527344 -6.339844 4.957031 -5.976562 4.957031 -5.328125 C 4.957031 -4.660156 4.539062 -4.308594 3.769531 -4.308594 L 2.121094 -4.308594 L 2.121094 -6.339844 Z M 3.769531 -6.339844 "/></g></g></g><g fill="#ffffff" fill-opacity="1"><g transform="translate(599.201677, 48.855169)"><g><path d="M 4.089844 0.140625 C 6.617188 0.140625 7.796875 -1.710938 7.796875 -3.820312 C 7.796875 -5.929688 6.617188 -7.769531 4.089844 -7.769531 C 1.570312 -7.769531 0.390625 -5.929688 0.390625 -3.820312 C 0.390625 -1.710938 1.570312 0.140625 4.089844 0.140625 Z M 4.089844 -1.148438 C 2.699219 -1.148438 1.890625 -2.230469 1.890625 -3.820312 C 1.890625 -5.398438 2.699219 -6.46875 4.089844 -6.46875 C 5.5 -6.46875 6.296875 -5.398438 6.296875 -3.820312 C 6.296875 -2.230469 5.5 -1.148438 4.089844 -1.148438 Z M 4.089844 -1.148438 "/></g></g></g><g fill="#ffffff" fill-opacity="1"><g transform="translate(607.39843, 48.855169)"><g><path d="M 5.347656 0 L 5.347656 -1.289062 L 2.121094 -1.289062 L 2.121094 -7.628906 L 0.679688 -7.628906 L 0.679688 0 Z M 5.347656 0 "/></g></g></g><g fill="#ffffff" fill-opacity="1"><g transform="translate(612.856272, 48.855169)"><g><path d="M 1.578125 0 L 2.089844 -1.570312 L 5 -1.570312 L 5.519531 0 L 7.027344 0 L 4.339844 -7.628906 L 2.757812 -7.628906 L 0.0703125 0 Z M 3.550781 -6.058594 L 4.597656 -2.828125 L 2.5 -2.828125 Z M 3.550781 -6.058594 "/></g></g></g><g fill="#ffffff" fill-opacity="1"><g transform="translate(619.953467, 48.855169)"><g><path d="M 2.898438 0 C 5.46875 0 6.886719 -1.371094 6.886719 -3.808594 C 6.886719 -6.257812 5.480469 -7.628906 2.898438 -7.628906 L 0.679688 -7.628906 L 0.679688 0 Z M 2.121094 -6.339844 L 2.890625 -6.339844 C 4.429688 -6.339844 5.449219 -5.578125 5.449219 -3.808594 C 5.449219 -1.917969 4.398438 -1.289062 2.878906 -1.289062 L 2.121094 -1.289062 Z M 2.121094 -6.339844 "/></g></g></g><g fill="#ffffff" fill-opacity="1"><g transform="translate(627.230586, 48.855169)"><g><path d="M 4.089844 0.140625 C 6.617188 0.140625 7.796875 -1.710938 7.796875 -3.820312 C 7.796875 -5.929688 6.617188 -7.769531 4.089844 -7.769531 C 1.570312 -7.769531 0.390625 -5.929688 0.390625 -3.820312 C 0.390625 -1.710938 1.570312 0.140625 4.089844 0.140625 Z M 4.089844 -1.148438 C 2.699219 -1.148438 1.890625 -2.230469 1.890625 -3.820312 C 1.890625 -5.398438 2.699219 -6.46875 4.089844 -6.46875 C 5.5 -6.46875 6.296875 -5.398438 6.296875 -3.820312 C 6.296875 -2.230469 5.5 -1.148438 4.089844 -1.148438 Z M 4.089844 -1.148438 "/></g></g></g><g fill="#ffffff" fill-opacity="1"><g transform="translate(635.42734, 48.855169)"><g><path d="M 5.1875 -3.308594 C 5.929688 -3.660156 6.386719 -4.378906 6.386719 -5.378906 C 6.386719 -6.957031 5.398438 -7.628906 3.96875 -7.628906 L 0.679688 -7.628906 L 0.679688 0 L 2.121094 0 L 2.121094 -3.050781 L 3.820312 -3.050781 L 5.027344 0 L 6.558594 0 Z M 3.769531 -6.339844 C 4.527344 -6.339844 4.957031 -5.976562 4.957031 -5.328125 C 4.957031 -4.660156 4.539062 -4.308594 3.769531 -4.308594 L 2.121094 -4.308594 L 2.121094 -6.339844 Z M 3.769531 -6.339844 "/></g></g></g><g fill="#ffffff" fill-opacity="1"><g transform="translate(562.606153, 215.278038)"><g><path d="M 4.089844 0.140625 C 5.96875 0.140625 7.117188 -0.898438 7.328125 -2.480469 L 5.757812 -2.480469 C 5.609375 -1.578125 4.949219 -1.148438 4.050781 -1.148438 C 2.648438 -1.148438 1.890625 -2.230469 1.890625 -3.820312 C 1.890625 -5.398438 2.648438 -6.476562 4.050781 -6.476562 C 4.949219 -6.476562 5.617188 -6.046875 5.757812 -5.238281 L 7.328125 -5.238281 C 7.117188 -6.738281 5.96875 -7.769531 4.089844 -7.769531 C 1.558594 -7.769531 0.390625 -5.929688 0.390625 -3.820312 C 0.390625 -1.710938 1.558594 0.140625 4.089844 0.140625 Z M 4.089844 0.140625 "/></g></g></g><g fill="#ffffff" fill-opacity="1"><g transform="translate(570.273125, 215.278038)"><g><path d="M 4.089844 0.140625 C 6.617188 0.140625 7.796875 -1.710938 7.796875 -3.820312 C 7.796875 -5.929688 6.617188 -7.769531 4.089844 -7.769531 C 1.570312 -7.769531 0.390625 -5.929688 0.390625 -3.820312 C 0.390625 -1.710938 1.570312 0.140625 4.089844 0.140625 Z M 4.089844 -1.148438 C 2.699219 -1.148438 1.890625 -2.230469 1.890625 -3.820312 C 1.890625 -5.398438 2.699219 -6.46875 4.089844 -6.46875 C 5.5 -6.46875 6.296875 -5.398438 6.296875 -3.820312 C 6.296875 -2.230469 5.5 -1.148438 4.089844 -1.148438 Z M 4.089844 -1.148438 "/></g></g></g><g fill="#ffffff" fill-opacity="1"><g transform="translate(578.469879, 215.278038)"><g><path d="M 2.121094 0 L 2.121094 -5.46875 L 5.238281 0 L 6.867188 0 L 6.867188 -7.628906 L 5.429688 -7.628906 L 5.429688 -2.167969 L 2.300781 -7.628906 L 0.679688 -7.628906 L 0.679688 0 Z M 2.121094 0 "/></g></g></g><g fill="#ffffff" fill-opacity="1"><g transform="translate(586.016895, 215.278038)"><g><path d="M 3.867188 0 L 3.867188 -6.339844 L 6.1875 -6.339844 L 6.1875 -7.628906 L 0.101562 -7.628906 L 0.101562 -6.339844 L 2.429688 -6.339844 L 2.429688 0 Z M 3.867188 0 "/></g></g></g><g fill="#ffffff" fill-opacity="1"><g transform="translate(592.3144, 215.278038)"><g><path d="M 5.1875 -3.308594 C 5.929688 -3.660156 6.386719 -4.378906 6.386719 -5.378906 C 6.386719 -6.957031 5.398438 -7.628906 3.96875 -7.628906 L 0.679688 -7.628906 L 0.679688 0 L 2.121094 0 L 2.121094 -3.050781 L 3.820312 -3.050781 L 5.027344 0 L 6.558594 0 Z M 3.769531 -6.339844 C 4.527344 -6.339844 4.957031 -5.976562 4.957031 -5.328125 C 4.957031 -4.660156 4.539062 -4.308594 3.769531 -4.308594 L 2.121094 -4.308594 L 2.121094 -6.339844 Z M 3.769531 -6.339844 "/></g></g></g><g fill="#ffffff" fill-opacity="1"><g transform="translate(599.201677, 215.278038)"><g><path d="M 4.089844 0.140625 C 6.617188 0.140625 7.796875 -1.710938 7.796875 -3.820312 C 7.796875 -5.929688 6.617188 -7.769531 4.089844 -7.769531 C 1.570312 -7.769531 0.390625 -5.929688 0.390625 -3.820312 C 0.390625 -1.710938 1.570312 0.140625 4.089844 0.140625 Z M 4.089844 -1.148438 C 2.699219 -1.148438 1.890625 -2.230469 1.890625 -3.820312 C 1.890625 -5.398438 2.699219 -6.46875 4.089844 -6.46875 C 5.5 -6.46875 6.296875 -5.398438 6.296875 -3.820312 C 6.296875 -2.230469 5.5 -1.148438 4.089844 -1.148438 Z M 4.089844 -1.148438 "/></g></g></g><g fill="#ffffff" fill-opacity="1"><g transform="translate(607.39843, 215.278038)"><g><path d="M 5.347656 0 L 5.347656 -1.289062 L 2.121094 -1.289062 L 2.121094 -7.628906 L 0.679688 -7.628906 L 0.679688 0 Z M 5.347656 0 "/></g></g></g><g fill="#ffffff" fill-opacity="1"><g transform="translate(612.856272, 215.278038)"><g><path d="M 1.578125 0 L 2.089844 -1.570312 L 5 -1.570312 L 5.519531 0 L 7.027344 0 L 4.339844 -7.628906 L 2.757812 -7.628906 L 0.0703125 0 Z M 3.550781 -6.058594 L 4.597656 -2.828125 L 2.5 -2.828125 Z M 3.550781 -6.058594 "/></g></g></g><g fill="#ffffff" fill-opacity="1"><g transform="translate(619.953467, 215.278038)"><g><path d="M 2.898438 0 C 5.46875 0 6.886719 -1.371094 6.886719 -3.808594 C 6.886719 -6.257812 5.480469 -7.628906 2.898438 -7.628906 L 0.679688 -7.628906 L 0.679688 0 Z M 2.121094 -6.339844 L 2.890625 -6.339844 C 4.429688 -6.339844 5.449219 -5.578125 5.449219 -3.808594 C 5.449219 -1.917969 4.398438 -1.289062 2.878906 -1.289062 L 2.121094 -1.289062 Z M 2.121094 -6.339844 "/></g></g></g><g fill="#ffffff" fill-opacity="1"><g transform="translate(627.230586, 215.278038)"><g><path d="M 4.089844 0.140625 C 6.617188 0.140625 7.796875 -1.710938 7.796875 -3.820312 C 7.796875 -5.929688 6.617188 -7.769531 4.089844 -7.769531 C 1.570312 -7.769531 0.390625 -5.929688 0.390625 -3.820312 C 0.390625 -1.710938 1.570312 0.140625 4.089844 0.140625 Z M 4.089844 -1.148438 C 2.699219 -1.148438 1.890625 -2.230469 1.890625 -3.820312 C 1.890625 -5.398438 2.699219 -6.46875 4.089844 -6.46875 C 5.5 -6.46875 6.296875 -5.398438 6.296875 -3.820312 C 6.296875 -2.230469 5.5 -1.148438 4.089844 -1.148438 Z M 4.089844 -1.148438 "/></g></g></g><g fill="#ffffff" fill-opacity="1"><g transform="translate(635.42734, 215.278038)"><g><path d="M 5.1875 -3.308594 C 5.929688 -3.660156 6.386719 -4.378906 6.386719 -5.378906 C 6.386719 -6.957031 5.398438 -7.628906 3.96875 -7.628906 L 0.679688 -7.628906 L 0.679688 0 L 2.121094 0 L 2.121094 -3.050781 L 3.820312 -3.050781 L 5.027344 0 L 6.558594 0 Z M 3.769531 -6.339844 C 4.527344 -6.339844 4.957031 -5.976562 4.957031 -5.328125 C 4.957031 -4.660156 4.539062 -4.308594 3.769531 -4.308594 L 2.121094 -4.308594 L 2.121094 -6.339844 Z M 3.769531 -6.339844 "/></g></g></g><g fill="#ffffff" fill-opacity="1"><g transform="translate(562.606153, 366.602397)"><g><path d="M 4.089844 0.140625 C 5.96875 0.140625 7.117188 -0.898438 7.328125 -2.480469 L 5.757812 -2.480469 C 5.609375 -1.578125 4.949219 -1.148438 4.050781 -1.148438 C 2.648438 -1.148438 1.890625 -2.230469 1.890625 -3.820312 C 1.890625 -5.398438 2.648438 -6.476562 4.050781 -6.476562 C 4.949219 -6.476562 5.617188 -6.046875 5.757812 -5.238281 L 7.328125 -5.238281 C 7.117188 -6.738281 5.96875 -7.769531 4.089844 -7.769531 C 1.558594 -7.769531 0.390625 -5.929688 0.390625 -3.820312 C 0.390625 -1.710938 1.558594 0.140625 4.089844 0.140625 Z M 4.089844 0.140625 "/></g></g></g><g fill="#ffffff" fill-opacity="1"><g transform="translate(570.273125, 366.602397)"><g><path d="M 4.089844 0.140625 C 6.617188 0.140625 7.796875 -1.710938 7.796875 -3.820312 C 7.796875 -5.929688 6.617188 -7.769531 4.089844 -7.769531 C 1.570312 -7.769531 0.390625 -5.929688 0.390625 -3.820312 C 0.390625 -1.710938 1.570312 0.140625 4.089844 0.140625 Z M 4.089844 -1.148438 C 2.699219 -1.148438 1.890625 -2.230469 1.890625 -3.820312 C 1.890625 -5.398438 2.699219 -6.46875 4.089844 -6.46875 C 5.5 -6.46875 6.296875 -5.398438 6.296875 -3.820312 C 6.296875 -2.230469 5.5 -1.148438 4.089844 -1.148438 Z M 4.089844 -1.148438 "/></g></g></g><g fill="#ffffff" fill-opacity="1"><g transform="translate(578.469879, 366.602397)"><g><path d="M 2.121094 0 L 2.121094 -5.46875 L 5.238281 0 L 6.867188 0 L 6.867188 -7.628906 L 5.429688 -7.628906 L 5.429688 -2.167969 L 2.300781 -7.628906 L 0.679688 -7.628906 L 0.679688 0 Z M 2.121094 0 "/></g></g></g><g fill="#ffffff" fill-opacity="1"><g transform="translate(586.016895, 366.602397)"><g><path d="M 3.867188 0 L 3.867188 -6.339844 L 6.1875 -6.339844 L 6.1875 -7.628906 L 0.101562 -7.628906 L 0.101562 -6.339844 L 2.429688 -6.339844 L 2.429688 0 Z M 3.867188 0 "/></g></g></g><g fill="#ffffff" fill-opacity="1"><g transform="translate(592.3144, 366.602397)"><g><path d="M 5.1875 -3.308594 C 5.929688 -3.660156 6.386719 -4.378906 6.386719 -5.378906 C 6.386719 -6.957031 5.398438 -7.628906 3.96875 -7.628906 L 0.679688 -7.628906 L 0.679688 0 L 2.121094 0 L 2.121094 -3.050781 L 3.820312 -3.050781 L 5.027344 0 L 6.558594 0 Z M 3.769531 -6.339844 C 4.527344 -6.339844 4.957031 -5.976562 4.957031 -5.328125 C 4.957031 -4.660156 4.539062 -4.308594 3.769531 -4.308594 L 2.121094 -4.308594 L 2.121094 -6.339844 Z M 3.769531 -6.339844 "/></g></g></g><g fill="#ffffff" fill-opacity="1"><g transform="translate(599.201677, 366.602397)"><g><path d="M 4.089844 0.140625 C 6.617188 0.140625 7.796875 -1.710938 7.796875 -3.820312 C 7.796875 -5.929688 6.617188 -7.769531 4.089844 -7.769531 C 1.570312 -7.769531 0.390625 -5.929688 0.390625 -3.820312 C 0.390625 -1.710938 1.570312 0.140625 4.089844 0.140625 Z M 4.089844 -1.148438 C 2.699219 -1.148438 1.890625 -2.230469 1.890625 -3.820312 C 1.890625 -5.398438 2.699219 -6.46875 4.089844 -6.46875 C 5.5 -6.46875 6.296875 -5.398438 6.296875 -3.820312 C 6.296875 -2.230469 5.5 -1.148438 4.089844 -1.148438 Z M 4.089844 -1.148438 "/></g></g></g><g fill="#ffffff" fill-opacity="1"><g transform="translate(607.39843, 366.602397)"><g><path d="M 5.347656 0 L 5.347656 -1.289062 L 2.121094 -1.289062 L 2.121094 -7.628906 L 0.679688 -7.628906 L 0.679688 0 Z M 5.347656 0 "/></g></g></g><g fill="#ffffff" fill-opacity="1"><g transform="translate(612.856272, 366.602397)"><g><path d="M 1.578125 0 L 2.089844 -1.570312 L 5 -1.570312 L 5.519531 0 L 7.027344 0 L 4.339844 -7.628906 L 2.757812 -7.628906 L 0.0703125 0 Z M 3.550781 -6.058594 L 4.597656 -2.828125 L 2.5 -2.828125 Z M 3.550781 -6.058594 "/></g></g></g><g fill="#ffffff" fill-opacity="1"><g transform="translate(619.953467, 366.602397)"><g><path d="M 2.898438 0 C 5.46875 0 6.886719 -1.371094 6.886719 -3.808594 C 6.886719 -6.257812 5.480469 -7.628906 2.898438 -7.628906 L 0.679688 -7.628906 L 0.679688 0 Z M 2.121094 -6.339844 L 2.890625 -6.339844 C 4.429688 -6.339844 5.449219 -5.578125 5.449219 -3.808594 C 5.449219 -1.917969 4.398438 -1.289062 2.878906 -1.289062 L 2.121094 -1.289062 Z M 2.121094 -6.339844 "/></g></g></g><g fill="#ffffff" fill-opacity="1"><g transform="translate(627.230586, 366.602397)"><g><path d="M 4.089844 0.140625 C 6.617188 0.140625 7.796875 -1.710938 7.796875 -3.820312 C 7.796875 -5.929688 6.617188 -7.769531 4.089844 -7.769531 C 1.570312 -7.769531 0.390625 -5.929688 0.390625 -3.820312 C 0.390625 -1.710938 1.570312 0.140625 4.089844 0.140625 Z M 4.089844 -1.148438 C 2.699219 -1.148438 1.890625 -2.230469 1.890625 -3.820312 C 1.890625 -5.398438 2.699219 -6.46875 4.089844 -6.46875 C 5.5 -6.46875 6.296875 -5.398438 6.296875 -3.820312 C 6.296875 -2.230469 5.5 -1.148438 4.089844 -1.148438 Z M 4.089844 -1.148438 "/></g></g></g><g fill="#ffffff" fill-opacity="1"><g transform="translate(635.42734, 366.602397)"><g><path d="M 5.1875 -3.308594 C 5.929688 -3.660156 6.386719 -4.378906 6.386719 -5.378906 C 6.386719 -6.957031 5.398438 -7.628906 3.96875 -7.628906 L 0.679688 -7.628906 L 0.679688 0 L 2.121094 0 L 2.121094 -3.050781 L 3.820312 -3.050781 L 5.027344 0 L 6.558594 0 Z M 3.769531 -6.339844 C 4.527344 -6.339844 4.957031 -5.976562 4.957031 -5.328125 C 4.957031 -4.660156 4.539062 -4.308594 3.769531 -4.308594 L 2.121094 -4.308594 L 2.121094 -6.339844 Z M 3.769531 -6.339844 "/></g></g></g><g fill="#ffffff" fill-opacity="1"><g transform="translate(562.606153, 534.1341)"><g><path d="M 4.089844 0.140625 C 5.96875 0.140625 7.117188 -0.898438 7.328125 -2.480469 L 5.757812 -2.480469 C 5.609375 -1.578125 4.949219 -1.148438 4.050781 -1.148438 C 2.648438 -1.148438 1.890625 -2.230469 1.890625 -3.820312 C 1.890625 -5.398438 2.648438 -6.476562 4.050781 -6.476562 C 4.949219 -6.476562 5.617188 -6.046875 5.757812 -5.238281 L 7.328125 -5.238281 C 7.117188 -6.738281 5.96875 -7.769531 4.089844 -7.769531 C 1.558594 -7.769531 0.390625 -5.929688 0.390625 -3.820312 C 0.390625 -1.710938 1.558594 0.140625 4.089844 0.140625 Z M 4.089844 0.140625 "/></g></g></g><g fill="#ffffff" fill-opacity="1"><g transform="translate(570.273125, 534.1341)"><g><path d="M 4.089844 0.140625 C 6.617188 0.140625 7.796875 -1.710938 7.796875 -3.820312 C 7.796875 -5.929688 6.617188 -7.769531 4.089844 -7.769531 C 1.570312 -7.769531 0.390625 -5.929688 0.390625 -3.820312 C 0.390625 -1.710938 1.570312 0.140625 4.089844 0.140625 Z M 4.089844 -1.148438 C 2.699219 -1.148438 1.890625 -2.230469 1.890625 -3.820312 C 1.890625 -5.398438 2.699219 -6.46875 4.089844 -6.46875 C 5.5 -6.46875 6.296875 -5.398438 6.296875 -3.820312 C 6.296875 -2.230469 5.5 -1.148438 4.089844 -1.148438 Z M 4.089844 -1.148438 "/></g></g></g><g fill="#ffffff" fill-opacity="1"><g transform="translate(578.469879, 534.1341)"><g><path d="M 2.121094 0 L 2.121094 -5.46875 L 5.238281 0 L 6.867188 0 L 6.867188 -7.628906 L 5.429688 -7.628906 L 5.429688 -2.167969 L 2.300781 -7.628906 L 0.679688 -7.628906 L 0.679688 0 Z M 2.121094 0 "/></g></g></g><g fill="#ffffff" fill-opacity="1"><g transform="translate(586.016895, 534.1341)"><g><path d="M 3.867188 0 L 3.867188 -6.339844 L 6.1875 -6.339844 L 6.1875 -7.628906 L 0.101562 -7.628906 L 0.101562 -6.339844 L 2.429688 -6.339844 L 2.429688 0 Z M 3.867188 0 "/></g></g></g><g fill="#ffffff" fill-opacity="1"><g transform="translate(592.3144, 534.1341)"><g><path d="M 5.1875 -3.308594 C 5.929688 -3.660156 6.386719 -4.378906 6.386719 -5.378906 C 6.386719 -6.957031 5.398438 -7.628906 3.96875 -7.628906 L 0.679688 -7.628906 L 0.679688 0 L 2.121094 0 L 2.121094 -3.050781 L 3.820312 -3.050781 L 5.027344 0 L 6.558594 0 Z M 3.769531 -6.339844 C 4.527344 -6.339844 4.957031 -5.976562 4.957031 -5.328125 C 4.957031 -4.660156 4.539062 -4.308594 3.769531 -4.308594 L 2.121094 -4.308594 L 2.121094 -6.339844 Z M 3.769531 -6.339844 "/></g></g></g><g fill="#ffffff" fill-opacity="1"><g transform="translate(599.201677, 534.1341)"><g><path d="M 4.089844 0.140625 C 6.617188 0.140625 7.796875 -1.710938 7.796875 -3.820312 C 7.796875 -5.929688 6.617188 -7.769531 4.089844 -7.769531 C 1.570312 -7.769531 0.390625 -5.929688 0.390625 -3.820312 C 0.390625 -1.710938 1.570312 0.140625 4.089844 0.140625 Z M 4.089844 -1.148438 C 2.699219 -1.148438 1.890625 -2.230469 1.890625 -3.820312 C 1.890625 -5.398438 2.699219 -6.46875 4.089844 -6.46875 C 5.5 -6.46875 6.296875 -5.398438 6.296875 -3.820312 C 6.296875 -2.230469 5.5 -1.148438 4.089844 -1.148438 Z M 4.089844 -1.148438 "/></g></g></g><g fill="#ffffff" fill-opacity="1"><g transform="translate(607.39843, 534.1341)"><g><path d="M 5.347656 0 L 5.347656 -1.289062 L 2.121094 -1.289062 L 2.121094 -7.628906 L 0.679688 -7.628906 L 0.679688 0 Z M 5.347656 0 "/></g></g></g><g fill="#ffffff" fill-opacity="1"><g transform="translate(612.856272, 534.1341)"><g><path d="M 1.578125 0 L 2.089844 -1.570312 L 5 -1.570312 L 5.519531 0 L 7.027344 0 L 4.339844 -7.628906 L 2.757812 -7.628906 L 0.0703125 0 Z M 3.550781 -6.058594 L 4.597656 -2.828125 L 2.5 -2.828125 Z M 3.550781 -6.058594 "/></g></g></g><g fill="#ffffff" fill-opacity="1"><g transform="translate(619.953467, 534.1341)"><g><path d="M 2.898438 0 C 5.46875 0 6.886719 -1.371094 6.886719 -3.808594 C 6.886719 -6.257812 5.480469 -7.628906 2.898438 -7.628906 L 0.679688 -7.628906 L 0.679688 0 Z M 2.121094 -6.339844 L 2.890625 -6.339844 C 4.429688 -6.339844 5.449219 -5.578125 5.449219 -3.808594 C 5.449219 -1.917969 4.398438 -1.289062 2.878906 -1.289062 L 2.121094 -1.289062 Z M 2.121094 -6.339844 "/></g></g></g><g fill="#ffffff" fill-opacity="1"><g transform="translate(627.230586, 534.1341)"><g><path d="M 4.089844 0.140625 C 6.617188 0.140625 7.796875 -1.710938 7.796875 -3.820312 C 7.796875 -5.929688 6.617188 -7.769531 4.089844 -7.769531 C 1.570312 -7.769531 0.390625 -5.929688 0.390625 -3.820312 C 0.390625 -1.710938 1.570312 0.140625 4.089844 0.140625 Z M 4.089844 -1.148438 C 2.699219 -1.148438 1.890625 -2.230469 1.890625 -3.820312 C 1.890625 -5.398438 2.699219 -6.46875 4.089844 -6.46875 C 5.5 -6.46875 6.296875 -5.398438 6.296875 -3.820312 C 6.296875 -2.230469 5.5 -1.148438 4.089844 -1.148438 Z M 4.089844 -1.148438 "/></g></g></g><g fill="#ffffff" fill-opacity="1"><g transform="translate(635.42734, 534.1341)"><g><path d="M 5.1875 -3.308594 C 5.929688 -3.660156 6.386719 -4.378906 6.386719 -5.378906 C 6.386719 -6.957031 5.398438 -7.628906 3.96875 -7.628906 L 0.679688 -7.628906 L 0.679688 0 L 2.121094 0 L 2.121094 -3.050781 L 3.820312 -3.050781 L 5.027344 0 L 6.558594 0 Z M 3.769531 -6.339844 C 4.527344 -6.339844 4.957031 -5.976562 4.957031 -5.328125 C 4.957031 -4.660156 4.539062 -4.308594 3.769531 -4.308594 L 2.121094 -4.308594 L 2.121094 -6.339844 Z M 3.769531 -6.339844 "/></g></g></g><g fill="#ffffff" fill-opacity="1"><g transform="translate(134.418872, 41.789174)"><g><path d="M 1.402344 0 L 1.855469 -1.394531 L 4.433594 -1.394531 L 4.894531 0 L 6.234375 0 L 3.851562 -6.769531 L 2.449219 -6.769531 L 0.0625 0 Z M 3.148438 -5.375 L 4.082031 -2.511719 L 2.21875 -2.511719 Z M 3.148438 -5.375 "/></g></g></g><g fill="#ffffff" fill-opacity="1"><g transform="translate(140.716873, 41.789174)"><g><path d="M 1.878906 0 L 1.878906 -4.851562 L 4.648438 0 L 6.09375 0 L 6.09375 -6.769531 L 4.816406 -6.769531 L 4.816406 -1.925781 L 2.039062 -6.769531 L 0.601562 -6.769531 L 0.601562 0 Z M 1.878906 0 "/></g></g></g><g fill="#ffffff" fill-opacity="1"><g transform="translate(147.414035, 41.789174)"><g><path d="M 1.402344 0 L 1.855469 -1.394531 L 4.433594 -1.394531 L 4.894531 0 L 6.234375 0 L 3.851562 -6.769531 L 2.449219 -6.769531 L 0.0625 0 Z M 3.148438 -5.375 L 4.082031 -2.511719 L 2.21875 -2.511719 Z M 3.148438 -5.375 "/></g></g></g><g fill="#ffffff" fill-opacity="1"><g transform="translate(153.712035, 41.789174)"><g><path d="M 4.746094 0 L 4.746094 -1.144531 L 1.878906 -1.144531 L 1.878906 -6.769531 L 0.601562 -6.769531 L 0.601562 0 Z M 4.746094 0 "/></g></g></g><g fill="#ffffff" fill-opacity="1"><g transform="translate(158.555285, 41.789174)"><g><path d="M 1.878906 0 L 1.878906 -6.769531 L 0.601562 -6.769531 L 0.601562 0 Z M 1.878906 0 "/></g></g></g><g fill="#ffffff" fill-opacity="1"><g transform="translate(161.039007, 41.789174)"><g><path d="M 3.289062 0.125 C 4.886719 0.125 5.820312 -0.683594 5.820312 -1.960938 C 5.820312 -3.496094 4.480469 -3.796875 3.351562 -4.042969 C 2.527344 -4.230469 1.800781 -4.390625 1.800781 -5.011719 C 1.800781 -5.527344 2.261719 -5.800781 2.902344 -5.800781 C 3.59375 -5.800781 4.167969 -5.472656 4.335938 -4.753906 L 5.640625 -4.753906 C 5.429688 -6.21875 4.230469 -6.890625 2.925781 -6.890625 C 1.5625 -6.890625 0.53125 -6.210938 0.53125 -4.90625 C 0.53125 -3.476562 1.792969 -3.203125 2.902344 -2.953125 C 3.761719 -2.765625 4.53125 -2.597656 4.53125 -1.898438 C 4.53125 -1.25 4 -0.96875 3.300781 -0.96875 C 2.589844 -0.96875 1.855469 -1.234375 1.632812 -2.199219 L 0.308594 -2.199219 C 0.480469 -0.453125 1.988281 0.125 3.289062 0.125 Z M 3.289062 0.125 "/></g></g></g><g fill="#ffffff" fill-opacity="1"><g transform="translate(167.212824, 41.789174)"><g><path d="M 3.433594 0 L 3.433594 -5.625 L 5.492188 -5.625 L 5.492188 -6.769531 L 0.0898438 -6.769531 L 0.0898438 -5.625 L 2.15625 -5.625 L 2.15625 0 Z M 3.433594 0 "/></g></g></g><g fill="#ffffff" fill-opacity="1"><g transform="translate(172.801191, 41.789174)"><g><path d="M 1.402344 0 L 1.855469 -1.394531 L 4.433594 -1.394531 L 4.894531 0 L 6.234375 0 L 3.851562 -6.769531 L 2.449219 -6.769531 L 0.0625 0 Z M 3.148438 -5.375 L 4.082031 -2.511719 L 2.21875 -2.511719 Z M 3.148438 -5.375 "/></g></g></g><g fill="#ffffff" fill-opacity="1"><g transform="translate(179.099192, 41.789174)"><g/></g></g><g fill="#ffffff" fill-opacity="1"><g transform="translate(181.476461, 41.789174)"><g><path d="M 2.574219 0 C 4.851562 0 6.113281 -1.214844 6.113281 -3.378906 C 6.113281 -5.554688 4.859375 -6.769531 2.574219 -6.769531 L 0.601562 -6.769531 L 0.601562 0 Z M 1.878906 -5.625 L 2.5625 -5.625 C 3.929688 -5.625 4.835938 -4.949219 4.835938 -3.378906 C 4.835938 -1.703125 3.902344 -1.144531 2.554688 -1.144531 L 1.878906 -1.144531 Z M 1.878906 -5.625 "/></g></g></g><g fill="#ffffff" fill-opacity="1"><g transform="translate(187.93413, 41.789174)"><g><path d="M 5.117188 0 L 5.117188 -1.144531 L 1.878906 -1.144531 L 1.878906 -2.820312 L 4.78125 -2.820312 L 4.78125 -3.957031 L 1.878906 -3.957031 L 1.878906 -5.625 L 5.117188 -5.625 L 5.117188 -6.769531 L 0.601562 -6.769531 L 0.601562 0 Z M 5.117188 0 "/></g></g></g><g fill="#ffffff" fill-opacity="1"><g transform="translate(137.283258, 53.616315)"><g><path d="M 3.289062 0.125 C 4.886719 0.125 5.820312 -0.683594 5.820312 -1.960938 C 5.820312 -3.496094 4.480469 -3.796875 3.351562 -4.042969 C 2.527344 -4.230469 1.800781 -4.390625 1.800781 -5.011719 C 1.800781 -5.527344 2.261719 -5.800781 2.902344 -5.800781 C 3.59375 -5.800781 4.167969 -5.472656 4.335938 -4.753906 L 5.640625 -4.753906 C 5.429688 -6.21875 4.230469 -6.890625 2.925781 -6.890625 C 1.5625 -6.890625 0.53125 -6.210938 0.53125 -4.90625 C 0.53125 -3.476562 1.792969 -3.203125 2.902344 -2.953125 C 3.761719 -2.765625 4.53125 -2.597656 4.53125 -1.898438 C 4.53125 -1.25 4 -0.96875 3.300781 -0.96875 C 2.589844 -0.96875 1.855469 -1.234375 1.632812 -2.199219 L 0.308594 -2.199219 C 0.480469 -0.453125 1.988281 0.125 3.289062 0.125 Z M 3.289062 0.125 "/></g></g></g><g fill="#ffffff" fill-opacity="1"><g transform="translate(143.457074, 53.616315)"><g><path d="M 5.117188 0 L 5.117188 -1.144531 L 1.878906 -1.144531 L 1.878906 -2.820312 L 4.78125 -2.820312 L 4.78125 -3.957031 L 1.878906 -3.957031 L 1.878906 -5.625 L 5.117188 -5.625 L 5.117188 -6.769531 L 0.601562 -6.769531 L 0.601562 0 Z M 5.117188 0 "/></g></g></g><g fill="#ffffff" fill-opacity="1"><g transform="translate(148.965607, 53.616315)"><g><path d="M 3.644531 0.125 C 4.363281 0.125 5.144531 -0.0898438 5.613281 -0.761719 L 5.613281 0 L 6.777344 0 L 6.777344 -3.679688 L 4.007812 -3.679688 L 4.007812 -2.625 L 5.507812 -2.625 C 5.480469 -1.5625 4.816406 -1.019531 3.753906 -1.019531 C 2.367188 -1.019531 1.675781 -2.03125 1.675781 -3.398438 C 1.675781 -4.71875 2.339844 -5.746094 3.636719 -5.746094 C 4.53125 -5.746094 5.089844 -5.347656 5.3125 -4.648438 L 6.714844 -4.648438 C 6.441406 -5.988281 5.394531 -6.890625 3.644531 -6.890625 C 1.375 -6.890625 0.347656 -5.234375 0.347656 -3.386719 C 0.347656 -1.542969 1.375 0.125 3.644531 0.125 Z M 3.644531 0.125 "/></g></g></g><g fill="#ffffff" fill-opacity="1"><g transform="translate(156.230475, 53.616315)"><g><path d="M 3.265625 0.125 C 5.199219 0.125 5.996094 -0.921875 5.996094 -2.457031 L 5.996094 -6.769531 L 4.710938 -6.769531 L 4.710938 -2.457031 C 4.710938 -1.613281 4.355469 -1.019531 3.265625 -1.019531 C 2.171875 -1.019531 1.820312 -1.613281 1.820312 -2.457031 L 1.820312 -6.769531 L 0.53125 -6.769531 L 0.53125 -2.457031 C 0.53125 -0.921875 1.320312 0.125 3.265625 0.125 Z M 3.265625 0.125 "/></g></g></g><g fill="#ffffff" fill-opacity="1"><g transform="translate(162.767968, 53.616315)"><g><path d="M 4.605469 -2.9375 C 5.261719 -3.246094 5.667969 -3.886719 5.667969 -4.773438 C 5.667969 -6.171875 4.789062 -6.769531 3.523438 -6.769531 L 0.601562 -6.769531 L 0.601562 0 L 1.878906 0 L 1.878906 -2.707031 L 3.386719 -2.707031 L 4.460938 0 L 5.820312 0 Z M 3.34375 -5.625 C 4.019531 -5.625 4.398438 -5.304688 4.398438 -4.726562 C 4.398438 -4.132812 4.027344 -3.824219 3.34375 -3.824219 L 1.878906 -3.824219 L 1.878906 -5.625 Z M 3.34375 -5.625 "/></g></g></g><g fill="#ffffff" fill-opacity="1"><g transform="translate(168.879681, 53.616315)"><g><path d="M 1.878906 0 L 1.878906 -6.769531 L 0.601562 -6.769531 L 0.601562 0 Z M 1.878906 0 "/></g></g></g><g fill="#ffffff" fill-opacity="1"><g transform="translate(171.363404, 53.616315)"><g><path d="M 2.574219 0 C 4.851562 0 6.113281 -1.214844 6.113281 -3.378906 C 6.113281 -5.554688 4.859375 -6.769531 2.574219 -6.769531 L 0.601562 -6.769531 L 0.601562 0 Z M 1.878906 -5.625 L 2.5625 -5.625 C 3.929688 -5.625 4.835938 -4.949219 4.835938 -3.378906 C 4.835938 -1.703125 3.902344 -1.144531 2.554688 -1.144531 L 1.878906 -1.144531 Z M 1.878906 -5.625 "/></g></g></g><g fill="#ffffff" fill-opacity="1"><g transform="translate(177.821073, 53.616315)"><g><path d="M 1.402344 0 L 1.855469 -1.394531 L 4.433594 -1.394531 L 4.894531 0 L 6.234375 0 L 3.851562 -6.769531 L 2.449219 -6.769531 L 0.0625 0 Z M 3.148438 -5.375 L 4.082031 -2.511719 L 2.21875 -2.511719 Z M 3.148438 -5.375 "/></g></g></g><g fill="#ffffff" fill-opacity="1"><g transform="translate(184.119074, 53.616315)"><g><path d="M 2.574219 0 C 4.851562 0 6.113281 -1.214844 6.113281 -3.378906 C 6.113281 -5.554688 4.859375 -6.769531 2.574219 -6.769531 L 0.601562 -6.769531 L 0.601562 0 Z M 1.878906 -5.625 L 2.5625 -5.625 C 3.929688 -5.625 4.835938 -4.949219 4.835938 -3.378906 C 4.835938 -1.703125 3.902344 -1.144531 2.554688 -1.144531 L 1.878906 -1.144531 Z M 1.878906 -5.625 "/></g></g></g><g fill="#ffffff" fill-opacity="1"><g transform="translate(133.188315, 209.321257)"><g><path d="M 1.402344 0 L 1.855469 -1.394531 L 4.433594 -1.394531 L 4.894531 0 L 6.234375 0 L 3.851562 -6.769531 L 2.449219 -6.769531 L 0.0625 0 Z M 3.148438 -5.375 L 4.082031 -2.511719 L 2.21875 -2.511719 Z M 3.148438 -5.375 "/></g></g></g><g fill="#ffffff" fill-opacity="1"><g transform="translate(139.486316, 209.321257)"><g><path d="M 1.878906 0 L 1.878906 -4.851562 L 4.648438 0 L 6.09375 0 L 6.09375 -6.769531 L 4.816406 -6.769531 L 4.816406 -1.925781 L 2.039062 -6.769531 L 0.601562 -6.769531 L 0.601562 0 Z M 1.878906 0 "/></g></g></g><g fill="#ffffff" fill-opacity="1"><g transform="translate(146.183478, 209.321257)"><g><path d="M 1.402344 0 L 1.855469 -1.394531 L 4.433594 -1.394531 L 4.894531 0 L 6.234375 0 L 3.851562 -6.769531 L 2.449219 -6.769531 L 0.0625 0 Z M 3.148438 -5.375 L 4.082031 -2.511719 L 2.21875 -2.511719 Z M 3.148438 -5.375 "/></g></g></g><g fill="#ffffff" fill-opacity="1"><g transform="translate(152.481479, 209.321257)"><g><path d="M 4.746094 0 L 4.746094 -1.144531 L 1.878906 -1.144531 L 1.878906 -6.769531 L 0.601562 -6.769531 L 0.601562 0 Z M 4.746094 0 "/></g></g></g><g fill="#ffffff" fill-opacity="1"><g transform="translate(157.324728, 209.321257)"><g><path d="M 1.878906 0 L 1.878906 -6.769531 L 0.601562 -6.769531 L 0.601562 0 Z M 1.878906 0 "/></g></g></g><g fill="#ffffff" fill-opacity="1"><g transform="translate(159.808451, 209.321257)"><g><path d="M 3.289062 0.125 C 4.886719 0.125 5.820312 -0.683594 5.820312 -1.960938 C 5.820312 -3.496094 4.480469 -3.796875 3.351562 -4.042969 C 2.527344 -4.230469 1.800781 -4.390625 1.800781 -5.011719 C 1.800781 -5.527344 2.261719 -5.800781 2.902344 -5.800781 C 3.59375 -5.800781 4.167969 -5.472656 4.335938 -4.753906 L 5.640625 -4.753906 C 5.429688 -6.21875 4.230469 -6.890625 2.925781 -6.890625 C 1.5625 -6.890625 0.53125 -6.210938 0.53125 -4.90625 C 0.53125 -3.476562 1.792969 -3.203125 2.902344 -2.953125 C 3.761719 -2.765625 4.53125 -2.597656 4.53125 -1.898438 C 4.53125 -1.25 4 -0.96875 3.300781 -0.96875 C 2.589844 -0.96875 1.855469 -1.234375 1.632812 -2.199219 L 0.308594 -2.199219 C 0.480469 -0.453125 1.988281 0.125 3.289062 0.125 Z M 3.289062 0.125 "/></g></g></g><g fill="#ffffff" fill-opacity="1"><g transform="translate(165.982267, 209.321257)"><g><path d="M 3.433594 0 L 3.433594 -5.625 L 5.492188 -5.625 L 5.492188 -6.769531 L 0.0898438 -6.769531 L 0.0898438 -5.625 L 2.15625 -5.625 L 2.15625 0 Z M 3.433594 0 "/></g></g></g><g fill="#ffffff" fill-opacity="1"><g transform="translate(171.570634, 209.321257)"><g><path d="M 1.402344 0 L 1.855469 -1.394531 L 4.433594 -1.394531 L 4.894531 0 L 6.234375 0 L 3.851562 -6.769531 L 2.449219 -6.769531 L 0.0625 0 Z M 3.148438 -5.375 L 4.082031 -2.511719 L 2.21875 -2.511719 Z M 3.148438 -5.375 "/></g></g></g><g fill="#ffffff" fill-opacity="1"><g transform="translate(177.868635, 209.321257)"><g/></g></g><g fill="#ffffff" fill-opacity="1"><g transform="translate(180.245904, 209.321257)"><g><path d="M 2.574219 0 C 4.851562 0 6.113281 -1.214844 6.113281 -3.378906 C 6.113281 -5.554688 4.859375 -6.769531 2.574219 -6.769531 L 0.601562 -6.769531 L 0.601562 0 Z M 1.878906 -5.625 L 2.5625 -5.625 C 3.929688 -5.625 4.835938 -4.949219 4.835938 -3.378906 C 4.835938 -1.703125 3.902344 -1.144531 2.554688 -1.144531 L 1.878906 -1.144531 Z M 1.878906 -5.625 "/></g></g></g><g fill="#ffffff" fill-opacity="1"><g transform="translate(186.703574, 209.321257)"><g><path d="M 5.117188 0 L 5.117188 -1.144531 L 1.878906 -1.144531 L 1.878906 -2.820312 L 4.78125 -2.820312 L 4.78125 -3.957031 L 1.878906 -3.957031 L 1.878906 -5.625 L 5.117188 -5.625 L 5.117188 -6.769531 L 0.601562 -6.769531 L 0.601562 0 Z M 5.117188 0 "/></g></g></g><g fill="#ffffff" fill-opacity="1"><g transform="translate(136.052701, 221.148398)"><g><path d="M 3.289062 0.125 C 4.886719 0.125 5.820312 -0.683594 5.820312 -1.960938 C 5.820312 -3.496094 4.480469 -3.796875 3.351562 -4.042969 C 2.527344 -4.230469 1.800781 -4.390625 1.800781 -5.011719 C 1.800781 -5.527344 2.261719 -5.800781 2.902344 -5.800781 C 3.59375 -5.800781 4.167969 -5.472656 4.335938 -4.753906 L 5.640625 -4.753906 C 5.429688 -6.21875 4.230469 -6.890625 2.925781 -6.890625 C 1.5625 -6.890625 0.53125 -6.210938 0.53125 -4.90625 C 0.53125 -3.476562 1.792969 -3.203125 2.902344 -2.953125 C 3.761719 -2.765625 4.53125 -2.597656 4.53125 -1.898438 C 4.53125 -1.25 4 -0.96875 3.300781 -0.96875 C 2.589844 -0.96875 1.855469 -1.234375 1.632812 -2.199219 L 0.308594 -2.199219 C 0.480469 -0.453125 1.988281 0.125 3.289062 0.125 Z M 3.289062 0.125 "/></g></g></g><g fill="#ffffff" fill-opacity="1"><g transform="translate(142.226517, 221.148398)"><g><path d="M 5.117188 0 L 5.117188 -1.144531 L 1.878906 -1.144531 L 1.878906 -2.820312 L 4.78125 -2.820312 L 4.78125 -3.957031 L 1.878906 -3.957031 L 1.878906 -5.625 L 5.117188 -5.625 L 5.117188 -6.769531 L 0.601562 -6.769531 L 0.601562 0 Z M 5.117188 0 "/></g></g></g><g fill="#ffffff" fill-opacity="1"><g transform="translate(147.73505, 221.148398)"><g><path d="M 3.644531 0.125 C 4.363281 0.125 5.144531 -0.0898438 5.613281 -0.761719 L 5.613281 0 L 6.777344 0 L 6.777344 -3.679688 L 4.007812 -3.679688 L 4.007812 -2.625 L 5.507812 -2.625 C 5.480469 -1.5625 4.816406 -1.019531 3.753906 -1.019531 C 2.367188 -1.019531 1.675781 -2.03125 1.675781 -3.398438 C 1.675781 -4.71875 2.339844 -5.746094 3.636719 -5.746094 C 4.53125 -5.746094 5.089844 -5.347656 5.3125 -4.648438 L 6.714844 -4.648438 C 6.441406 -5.988281 5.394531 -6.890625 3.644531 -6.890625 C 1.375 -6.890625 0.347656 -5.234375 0.347656 -3.386719 C 0.347656 -1.542969 1.375 0.125 3.644531 0.125 Z M 3.644531 0.125 "/></g></g></g><g fill="#ffffff" fill-opacity="1"><g transform="translate(154.999919, 221.148398)"><g><path d="M 3.265625 0.125 C 5.199219 0.125 5.996094 -0.921875 5.996094 -2.457031 L 5.996094 -6.769531 L 4.710938 -6.769531 L 4.710938 -2.457031 C 4.710938 -1.613281 4.355469 -1.019531 3.265625 -1.019531 C 2.171875 -1.019531 1.820312 -1.613281 1.820312 -2.457031 L 1.820312 -6.769531 L 0.53125 -6.769531 L 0.53125 -2.457031 C 0.53125 -0.921875 1.320312 0.125 3.265625 0.125 Z M 3.265625 0.125 "/></g></g></g><g fill="#ffffff" fill-opacity="1"><g transform="translate(161.537412, 221.148398)"><g><path d="M 4.605469 -2.9375 C 5.261719 -3.246094 5.667969 -3.886719 5.667969 -4.773438 C 5.667969 -6.171875 4.789062 -6.769531 3.523438 -6.769531 L 0.601562 -6.769531 L 0.601562 0 L 1.878906 0 L 1.878906 -2.707031 L 3.386719 -2.707031 L 4.460938 0 L 5.820312 0 Z M 3.34375 -5.625 C 4.019531 -5.625 4.398438 -5.304688 4.398438 -4.726562 C 4.398438 -4.132812 4.027344 -3.824219 3.34375 -3.824219 L 1.878906 -3.824219 L 1.878906 -5.625 Z M 3.34375 -5.625 "/></g></g></g><g fill="#ffffff" fill-opacity="1"><g transform="translate(167.649124, 221.148398)"><g><path d="M 1.878906 0 L 1.878906 -6.769531 L 0.601562 -6.769531 L 0.601562 0 Z M 1.878906 0 "/></g></g></g><g fill="#ffffff" fill-opacity="1"><g transform="translate(170.132847, 221.148398)"><g><path d="M 2.574219 0 C 4.851562 0 6.113281 -1.214844 6.113281 -3.378906 C 6.113281 -5.554688 4.859375 -6.769531 2.574219 -6.769531 L 0.601562 -6.769531 L 0.601562 0 Z M 1.878906 -5.625 L 2.5625 -5.625 C 3.929688 -5.625 4.835938 -4.949219 4.835938 -3.378906 C 4.835938 -1.703125 3.902344 -1.144531 2.554688 -1.144531 L 1.878906 -1.144531 Z M 1.878906 -5.625 "/></g></g></g><g fill="#ffffff" fill-opacity="1"><g transform="translate(176.590517, 221.148398)"><g><path d="M 1.402344 0 L 1.855469 -1.394531 L 4.433594 -1.394531 L 4.894531 0 L 6.234375 0 L 3.851562 -6.769531 L 2.449219 -6.769531 L 0.0625 0 Z M 3.148438 -5.375 L 4.082031 -2.511719 L 2.21875 -2.511719 Z M 3.148438 -5.375 "/></g></g></g><g fill="#ffffff" fill-opacity="1"><g transform="translate(182.888517, 221.148398)"><g><path d="M 2.574219 0 C 4.851562 0 6.113281 -1.214844 6.113281 -3.378906 C 6.113281 -5.554688 4.859375 -6.769531 2.574219 -6.769531 L 0.601562 -6.769531 L 0.601562 0 Z M 1.878906 -5.625 L 2.5625 -5.625 C 3.929688 -5.625 4.835938 -4.949219 4.835938 -3.378906 C 4.835938 -1.703125 3.902344 -1.144531 2.554688 -1.144531 L 1.878906 -1.144531 Z M 1.878906 -5.625 "/></g></g></g><g fill="#ffffff" fill-opacity="1"><g transform="translate(133.188315, 361.484999)"><g><path d="M 1.402344 0 L 1.855469 -1.394531 L 4.433594 -1.394531 L 4.894531 0 L 6.234375 0 L 3.851562 -6.769531 L 2.449219 -6.769531 L 0.0625 0 Z M 3.148438 -5.375 L 4.082031 -2.511719 L 2.21875 -2.511719 Z M 3.148438 -5.375 "/></g></g></g><g fill="#ffffff" fill-opacity="1"><g transform="translate(139.486316, 361.484999)"><g><path d="M 1.878906 0 L 1.878906 -4.851562 L 4.648438 0 L 6.09375 0 L 6.09375 -6.769531 L 4.816406 -6.769531 L 4.816406 -1.925781 L 2.039062 -6.769531 L 0.601562 -6.769531 L 0.601562 0 Z M 1.878906 0 "/></g></g></g><g fill="#ffffff" fill-opacity="1"><g transform="translate(146.183478, 361.484999)"><g><path d="M 1.402344 0 L 1.855469 -1.394531 L 4.433594 -1.394531 L 4.894531 0 L 6.234375 0 L 3.851562 -6.769531 L 2.449219 -6.769531 L 0.0625 0 Z M 3.148438 -5.375 L 4.082031 -2.511719 L 2.21875 -2.511719 Z M 3.148438 -5.375 "/></g></g></g><g fill="#ffffff" fill-opacity="1"><g transform="translate(152.481479, 361.484999)"><g><path d="M 4.746094 0 L 4.746094 -1.144531 L 1.878906 -1.144531 L 1.878906 -6.769531 L 0.601562 -6.769531 L 0.601562 0 Z M 4.746094 0 "/></g></g></g><g fill="#ffffff" fill-opacity="1"><g transform="translate(157.324728, 361.484999)"><g><path d="M 1.878906 0 L 1.878906 -6.769531 L 0.601562 -6.769531 L 0.601562 0 Z M 1.878906 0 "/></g></g></g><g fill="#ffffff" fill-opacity="1"><g transform="translate(159.808451, 361.484999)"><g><path d="M 3.289062 0.125 C 4.886719 0.125 5.820312 -0.683594 5.820312 -1.960938 C 5.820312 -3.496094 4.480469 -3.796875 3.351562 -4.042969 C 2.527344 -4.230469 1.800781 -4.390625 1.800781 -5.011719 C 1.800781 -5.527344 2.261719 -5.800781 2.902344 -5.800781 C 3.59375 -5.800781 4.167969 -5.472656 4.335938 -4.753906 L 5.640625 -4.753906 C 5.429688 -6.21875 4.230469 -6.890625 2.925781 -6.890625 C 1.5625 -6.890625 0.53125 -6.210938 0.53125 -4.90625 C 0.53125 -3.476562 1.792969 -3.203125 2.902344 -2.953125 C 3.761719 -2.765625 4.53125 -2.597656 4.53125 -1.898438 C 4.53125 -1.25 4 -0.96875 3.300781 -0.96875 C 2.589844 -0.96875 1.855469 -1.234375 1.632812 -2.199219 L 0.308594 -2.199219 C 0.480469 -0.453125 1.988281 0.125 3.289062 0.125 Z M 3.289062 0.125 "/></g></g></g><g fill="#ffffff" fill-opacity="1"><g transform="translate(165.982267, 361.484999)"><g><path d="M 3.433594 0 L 3.433594 -5.625 L 5.492188 -5.625 L 5.492188 -6.769531 L 0.0898438 -6.769531 L 0.0898438 -5.625 L 2.15625 -5.625 L 2.15625 0 Z M 3.433594 0 "/></g></g></g><g fill="#ffffff" fill-opacity="1"><g transform="translate(171.570634, 361.484999)"><g><path d="M 1.402344 0 L 1.855469 -1.394531 L 4.433594 -1.394531 L 4.894531 0 L 6.234375 0 L 3.851562 -6.769531 L 2.449219 -6.769531 L 0.0625 0 Z M 3.148438 -5.375 L 4.082031 -2.511719 L 2.21875 -2.511719 Z M 3.148438 -5.375 "/></g></g></g><g fill="#ffffff" fill-opacity="1"><g transform="translate(177.868635, 361.484999)"><g/></g></g><g fill="#ffffff" fill-opacity="1"><g transform="translate(180.245904, 361.484999)"><g><path d="M 2.574219 0 C 4.851562 0 6.113281 -1.214844 6.113281 -3.378906 C 6.113281 -5.554688 4.859375 -6.769531 2.574219 -6.769531 L 0.601562 -6.769531 L 0.601562 0 Z M 1.878906 -5.625 L 2.5625 -5.625 C 3.929688 -5.625 4.835938 -4.949219 4.835938 -3.378906 C 4.835938 -1.703125 3.902344 -1.144531 2.554688 -1.144531 L 1.878906 -1.144531 Z M 1.878906 -5.625 "/></g></g></g><g fill="#ffffff" fill-opacity="1"><g transform="translate(186.703574, 361.484999)"><g><path d="M 5.117188 0 L 5.117188 -1.144531 L 1.878906 -1.144531 L 1.878906 -2.820312 L 4.78125 -2.820312 L 4.78125 -3.957031 L 1.878906 -3.957031 L 1.878906 -5.625 L 5.117188 -5.625 L 5.117188 -6.769531 L 0.601562 -6.769531 L 0.601562 0 Z M 5.117188 0 "/></g></g></g><g fill="#ffffff" fill-opacity="1"><g transform="translate(136.052701, 373.31214)"><g><path d="M 3.289062 0.125 C 4.886719 0.125 5.820312 -0.683594 5.820312 -1.960938 C 5.820312 -3.496094 4.480469 -3.796875 3.351562 -4.042969 C 2.527344 -4.230469 1.800781 -4.390625 1.800781 -5.011719 C 1.800781 -5.527344 2.261719 -5.800781 2.902344 -5.800781 C 3.59375 -5.800781 4.167969 -5.472656 4.335938 -4.753906 L 5.640625 -4.753906 C 5.429688 -6.21875 4.230469 -6.890625 2.925781 -6.890625 C 1.5625 -6.890625 0.53125 -6.210938 0.53125 -4.90625 C 0.53125 -3.476562 1.792969 -3.203125 2.902344 -2.953125 C 3.761719 -2.765625 4.53125 -2.597656 4.53125 -1.898438 C 4.53125 -1.25 4 -0.96875 3.300781 -0.96875 C 2.589844 -0.96875 1.855469 -1.234375 1.632812 -2.199219 L 0.308594 -2.199219 C 0.480469 -0.453125 1.988281 0.125 3.289062 0.125 Z M 3.289062 0.125 "/></g></g></g><g fill="#ffffff" fill-opacity="1"><g transform="translate(142.226517, 373.31214)"><g><path d="M 5.117188 0 L 5.117188 -1.144531 L 1.878906 -1.144531 L 1.878906 -2.820312 L 4.78125 -2.820312 L 4.78125 -3.957031 L 1.878906 -3.957031 L 1.878906 -5.625 L 5.117188 -5.625 L 5.117188 -6.769531 L 0.601562 -6.769531 L 0.601562 0 Z M 5.117188 0 "/></g></g></g><g fill="#ffffff" fill-opacity="1"><g transform="translate(147.73505, 373.31214)"><g><path d="M 3.644531 0.125 C 4.363281 0.125 5.144531 -0.0898438 5.613281 -0.761719 L 5.613281 0 L 6.777344 0 L 6.777344 -3.679688 L 4.007812 -3.679688 L 4.007812 -2.625 L 5.507812 -2.625 C 5.480469 -1.5625 4.816406 -1.019531 3.753906 -1.019531 C 2.367188 -1.019531 1.675781 -2.03125 1.675781 -3.398438 C 1.675781 -4.71875 2.339844 -5.746094 3.636719 -5.746094 C 4.53125 -5.746094 5.089844 -5.347656 5.3125 -4.648438 L 6.714844 -4.648438 C 6.441406 -5.988281 5.394531 -6.890625 3.644531 -6.890625 C 1.375 -6.890625 0.347656 -5.234375 0.347656 -3.386719 C 0.347656 -1.542969 1.375 0.125 3.644531 0.125 Z M 3.644531 0.125 "/></g></g></g><g fill="#ffffff" fill-opacity="1"><g transform="translate(154.999919, 373.31214)"><g><path d="M 3.265625 0.125 C 5.199219 0.125 5.996094 -0.921875 5.996094 -2.457031 L 5.996094 -6.769531 L 4.710938 -6.769531 L 4.710938 -2.457031 C 4.710938 -1.613281 4.355469 -1.019531 3.265625 -1.019531 C 2.171875 -1.019531 1.820312 -1.613281 1.820312 -2.457031 L 1.820312 -6.769531 L 0.53125 -6.769531 L 0.53125 -2.457031 C 0.53125 -0.921875 1.320312 0.125 3.265625 0.125 Z M 3.265625 0.125 "/></g></g></g><g fill="#ffffff" fill-opacity="1"><g transform="translate(161.537412, 373.31214)"><g><path d="M 4.605469 -2.9375 C 5.261719 -3.246094 5.667969 -3.886719 5.667969 -4.773438 C 5.667969 -6.171875 4.789062 -6.769531 3.523438 -6.769531 L 0.601562 -6.769531 L 0.601562 0 L 1.878906 0 L 1.878906 -2.707031 L 3.386719 -2.707031 L 4.460938 0 L 5.820312 0 Z M 3.34375 -5.625 C 4.019531 -5.625 4.398438 -5.304688 4.398438 -4.726562 C 4.398438 -4.132812 4.027344 -3.824219 3.34375 -3.824219 L 1.878906 -3.824219 L 1.878906 -5.625 Z M 3.34375 -5.625 "/></g></g></g><g fill="#ffffff" fill-opacity="1"><g transform="translate(167.649124, 373.31214)"><g><path d="M 1.878906 0 L 1.878906 -6.769531 L 0.601562 -6.769531 L 0.601562 0 Z M 1.878906 0 "/></g></g></g><g fill="#ffffff" fill-opacity="1"><g transform="translate(170.132847, 373.31214)"><g><path d="M 2.574219 0 C 4.851562 0 6.113281 -1.214844 6.113281 -3.378906 C 6.113281 -5.554688 4.859375 -6.769531 2.574219 -6.769531 L 0.601562 -6.769531 L 0.601562 0 Z M 1.878906 -5.625 L 2.5625 -5.625 C 3.929688 -5.625 4.835938 -4.949219 4.835938 -3.378906 C 4.835938 -1.703125 3.902344 -1.144531 2.554688 -1.144531 L 1.878906 -1.144531 Z M 1.878906 -5.625 "/></g></g></g><g fill="#ffffff" fill-opacity="1"><g transform="translate(176.590517, 373.31214)"><g><path d="M 1.402344 0 L 1.855469 -1.394531 L 4.433594 -1.394531 L 4.894531 0 L 6.234375 0 L 3.851562 -6.769531 L 2.449219 -6.769531 L 0.0625 0 Z M 3.148438 -5.375 L 4.082031 -2.511719 L 2.21875 -2.511719 Z M 3.148438 -5.375 "/></g></g></g><g fill="#ffffff" fill-opacity="1"><g transform="translate(182.888517, 373.31214)"><g><path d="M 2.574219 0 C 4.851562 0 6.113281 -1.214844 6.113281 -3.378906 C 6.113281 -5.554688 4.859375 -6.769531 2.574219 -6.769531 L 0.601562 -6.769531 L 0.601562 0 Z M 1.878906 -5.625 L 2.5625 -5.625 C 3.929688 -5.625 4.835938 -4.949219 4.835938 -3.378906 C 4.835938 -1.703125 3.902344 -1.144531 2.554688 -1.144531 L 1.878906 -1.144531 Z M 1.878906 -5.625 "/></g></g></g><g fill="#ffffff" fill-opacity="1"><g transform="translate(134.418872, 528.552338)"><g><path d="M 1.402344 0 L 1.855469 -1.394531 L 4.433594 -1.394531 L 4.894531 0 L 6.234375 0 L 3.851562 -6.769531 L 2.449219 -6.769531 L 0.0625 0 Z M 3.148438 -5.375 L 4.082031 -2.511719 L 2.21875 -2.511719 Z M 3.148438 -5.375 "/></g></g></g><g fill="#ffffff" fill-opacity="1"><g transform="translate(140.716873, 528.552338)"><g><path d="M 1.878906 0 L 1.878906 -4.851562 L 4.648438 0 L 6.09375 0 L 6.09375 -6.769531 L 4.816406 -6.769531 L 4.816406 -1.925781 L 2.039062 -6.769531 L 0.601562 -6.769531 L 0.601562 0 Z M 1.878906 0 "/></g></g></g><g fill="#ffffff" fill-opacity="1"><g transform="translate(147.414035, 528.552338)"><g><path d="M 1.402344 0 L 1.855469 -1.394531 L 4.433594 -1.394531 L 4.894531 0 L 6.234375 0 L 3.851562 -6.769531 L 2.449219 -6.769531 L 0.0625 0 Z M 3.148438 -5.375 L 4.082031 -2.511719 L 2.21875 -2.511719 Z M 3.148438 -5.375 "/></g></g></g><g fill="#ffffff" fill-opacity="1"><g transform="translate(153.712035, 528.552338)"><g><path d="M 4.746094 0 L 4.746094 -1.144531 L 1.878906 -1.144531 L 1.878906 -6.769531 L 0.601562 -6.769531 L 0.601562 0 Z M 4.746094 0 "/></g></g></g><g fill="#ffffff" fill-opacity="1"><g transform="translate(158.555285, 528.552338)"><g><path d="M 1.878906 0 L 1.878906 -6.769531 L 0.601562 -6.769531 L 0.601562 0 Z M 1.878906 0 "/></g></g></g><g fill="#ffffff" fill-opacity="1"><g transform="translate(161.039007, 528.552338)"><g><path d="M 3.289062 0.125 C 4.886719 0.125 5.820312 -0.683594 5.820312 -1.960938 C 5.820312 -3.496094 4.480469 -3.796875 3.351562 -4.042969 C 2.527344 -4.230469 1.800781 -4.390625 1.800781 -5.011719 C 1.800781 -5.527344 2.261719 -5.800781 2.902344 -5.800781 C 3.59375 -5.800781 4.167969 -5.472656 4.335938 -4.753906 L 5.640625 -4.753906 C 5.429688 -6.21875 4.230469 -6.890625 2.925781 -6.890625 C 1.5625 -6.890625 0.53125 -6.210938 0.53125 -4.90625 C 0.53125 -3.476562 1.792969 -3.203125 2.902344 -2.953125 C 3.761719 -2.765625 4.53125 -2.597656 4.53125 -1.898438 C 4.53125 -1.25 4 -0.96875 3.300781 -0.96875 C 2.589844 -0.96875 1.855469 -1.234375 1.632812 -2.199219 L 0.308594 -2.199219 C 0.480469 -0.453125 1.988281 0.125 3.289062 0.125 Z M 3.289062 0.125 "/></g></g></g><g fill="#ffffff" fill-opacity="1"><g transform="translate(167.212824, 528.552338)"><g><path d="M 3.433594 0 L 3.433594 -5.625 L 5.492188 -5.625 L 5.492188 -6.769531 L 0.0898438 -6.769531 L 0.0898438 -5.625 L 2.15625 -5.625 L 2.15625 0 Z M 3.433594 0 "/></g></g></g><g fill="#ffffff" fill-opacity="1"><g transform="translate(172.801191, 528.552338)"><g><path d="M 1.402344 0 L 1.855469 -1.394531 L 4.433594 -1.394531 L 4.894531 0 L 6.234375 0 L 3.851562 -6.769531 L 2.449219 -6.769531 L 0.0625 0 Z M 3.148438 -5.375 L 4.082031 -2.511719 L 2.21875 -2.511719 Z M 3.148438 -5.375 "/></g></g></g><g fill="#ffffff" fill-opacity="1"><g transform="translate(179.099192, 528.552338)"><g/></g></g><g fill="#ffffff" fill-opacity="1"><g transform="translate(181.476461, 528.552338)"><g><path d="M 2.574219 0 C 4.851562 0 6.113281 -1.214844 6.113281 -3.378906 C 6.113281 -5.554688 4.859375 -6.769531 2.574219 -6.769531 L 0.601562 -6.769531 L 0.601562 0 Z M 1.878906 -5.625 L 2.5625 -5.625 C 3.929688 -5.625 4.835938 -4.949219 4.835938 -3.378906 C 4.835938 -1.703125 3.902344 -1.144531 2.554688 -1.144531 L 1.878906 -1.144531 Z M 1.878906 -5.625 "/></g></g></g><g fill="#ffffff" fill-opacity="1"><g transform="translate(187.93413, 528.552338)"><g><path d="M 5.117188 0 L 5.117188 -1.144531 L 1.878906 -1.144531 L 1.878906 -2.820312 L 4.78125 -2.820312 L 4.78125 -3.957031 L 1.878906 -3.957031 L 1.878906 -5.625 L 5.117188 -5.625 L 5.117188 -6.769531 L 0.601562 -6.769531 L 0.601562 0 Z M 5.117188 0 "/></g></g></g><g fill="#ffffff" fill-opacity="1"><g transform="translate(137.283258, 540.379479)"><g><path d="M 3.289062 0.125 C 4.886719 0.125 5.820312 -0.683594 5.820312 -1.960938 C 5.820312 -3.496094 4.480469 -3.796875 3.351562 -4.042969 C 2.527344 -4.230469 1.800781 -4.390625 1.800781 -5.011719 C 1.800781 -5.527344 2.261719 -5.800781 2.902344 -5.800781 C 3.59375 -5.800781 4.167969 -5.472656 4.335938 -4.753906 L 5.640625 -4.753906 C 5.429688 -6.21875 4.230469 -6.890625 2.925781 -6.890625 C 1.5625 -6.890625 0.53125 -6.210938 0.53125 -4.90625 C 0.53125 -3.476562 1.792969 -3.203125 2.902344 -2.953125 C 3.761719 -2.765625 4.53125 -2.597656 4.53125 -1.898438 C 4.53125 -1.25 4 -0.96875 3.300781 -0.96875 C 2.589844 -0.96875 1.855469 -1.234375 1.632812 -2.199219 L 0.308594 -2.199219 C 0.480469 -0.453125 1.988281 0.125 3.289062 0.125 Z M 3.289062 0.125 "/></g></g></g><g fill="#ffffff" fill-opacity="1"><g transform="translate(143.457074, 540.379479)"><g><path d="M 5.117188 0 L 5.117188 -1.144531 L 1.878906 -1.144531 L 1.878906 -2.820312 L 4.78125 -2.820312 L 4.78125 -3.957031 L 1.878906 -3.957031 L 1.878906 -5.625 L 5.117188 -5.625 L 5.117188 -6.769531 L 0.601562 -6.769531 L 0.601562 0 Z M 5.117188 0 "/></g></g></g><g fill="#ffffff" fill-opacity="1"><g transform="translate(148.965607, 540.379479)"><g><path d="M 3.644531 0.125 C 4.363281 0.125 5.144531 -0.0898438 5.613281 -0.761719 L 5.613281 0 L 6.777344 0 L 6.777344 -3.679688 L 4.007812 -3.679688 L 4.007812 -2.625 L 5.507812 -2.625 C 5.480469 -1.5625 4.816406 -1.019531 3.753906 -1.019531 C 2.367188 -1.019531 1.675781 -2.03125 1.675781 -3.398438 C 1.675781 -4.71875 2.339844 -5.746094 3.636719 -5.746094 C 4.53125 -5.746094 5.089844 -5.347656 5.3125 -4.648438 L 6.714844 -4.648438 C 6.441406 -5.988281 5.394531 -6.890625 3.644531 -6.890625 C 1.375 -6.890625 0.347656 -5.234375 0.347656 -3.386719 C 0.347656 -1.542969 1.375 0.125 3.644531 0.125 Z M 3.644531 0.125 "/></g></g></g><g fill="#ffffff" fill-opacity="1"><g transform="translate(156.230475, 540.379479)"><g><path d="M 3.265625 0.125 C 5.199219 0.125 5.996094 -0.921875 5.996094 -2.457031 L 5.996094 -6.769531 L 4.710938 -6.769531 L 4.710938 -2.457031 C 4.710938 -1.613281 4.355469 -1.019531 3.265625 -1.019531 C 2.171875 -1.019531 1.820312 -1.613281 1.820312 -2.457031 L 1.820312 -6.769531 L 0.53125 -6.769531 L 0.53125 -2.457031 C 0.53125 -0.921875 1.320312 0.125 3.265625 0.125 Z M 3.265625 0.125 "/></g></g></g><g fill="#ffffff" fill-opacity="1"><g transform="translate(162.767968, 540.379479)"><g><path d="M 4.605469 -2.9375 C 5.261719 -3.246094 5.667969 -3.886719 5.667969 -4.773438 C 5.667969 -6.171875 4.789062 -6.769531 3.523438 -6.769531 L 0.601562 -6.769531 L 0.601562 0 L 1.878906 0 L 1.878906 -2.707031 L 3.386719 -2.707031 L 4.460938 0 L 5.820312 0 Z M 3.34375 -5.625 C 4.019531 -5.625 4.398438 -5.304688 4.398438 -4.726562 C 4.398438 -4.132812 4.027344 -3.824219 3.34375 -3.824219 L 1.878906 -3.824219 L 1.878906 -5.625 Z M 3.34375 -5.625 "/></g></g></g><g fill="#ffffff" fill-opacity="1"><g transform="translate(168.879681, 540.379479)"><g><path d="M 1.878906 0 L 1.878906 -6.769531 L 0.601562 -6.769531 L 0.601562 0 Z M 1.878906 0 "/></g></g></g><g fill="#ffffff" fill-opacity="1"><g transform="translate(171.363404, 540.379479)"><g><path d="M 2.574219 0 C 4.851562 0 6.113281 -1.214844 6.113281 -3.378906 C 6.113281 -5.554688 4.859375 -6.769531 2.574219 -6.769531 L 0.601562 -6.769531 L 0.601562 0 Z M 1.878906 -5.625 L 2.5625 -5.625 C 3.929688 -5.625 4.835938 -4.949219 4.835938 -3.378906 C 4.835938 -1.703125 3.902344 -1.144531 2.554688 -1.144531 L 1.878906 -1.144531 Z M 1.878906 -5.625 "/></g></g></g><g fill="#ffffff" fill-opacity="1"><g transform="translate(177.821073, 540.379479)"><g><path d="M 1.402344 0 L 1.855469 -1.394531 L 4.433594 -1.394531 L 4.894531 0 L 6.234375 0 L 3.851562 -6.769531 L 2.449219 -6.769531 L 0.0625 0 Z M 3.148438 -5.375 L 4.082031 -2.511719 L 2.21875 -2.511719 Z M 3.148438 -5.375 "/></g></g></g><g fill="#ffffff" fill-opacity="1"><g transform="translate(184.119074, 540.379479)"><g><path d="M 2.574219 0 C 4.851562 0 6.113281 -1.214844 6.113281 -3.378906 C 6.113281 -5.554688 4.859375 -6.769531 2.574219 -6.769531 L 0.601562 -6.769531 L 0.601562 0 Z M 1.878906 -5.625 L 2.5625 -5.625 C 3.929688 -5.625 4.835938 -4.949219 4.835938 -3.378906 C 4.835938 -1.703125 3.902344 -1.144531 2.554688 -1.144531 L 1.878906 -1.144531 Z M 1.878906 -5.625 "/></g></g></g></svg>